<svg width="510" height="510" viewBox="0 0 510 510" fill="none" xmlns="http://www.w3.org/2000/svg">
<g clip-path="url(#clip0_201_2546)">
<path d="M171.615 53.6475L173.424 60.0574L180.689 59.6672C181.385 61.0885 182.165 62.4262 183.056 63.6525L179.27 69.8672L184.058 74.5213L190.154 70.5361C191.434 71.4 192.798 72.1525 194.19 72.7934L193.995 80.0672L200.454 81.7115L203.738 75.218C205.269 75.3295 206.828 75.3016 208.387 75.1344L211.867 81.5443L218.269 79.7328L217.88 72.459C219.299 71.7623 220.635 70.982 221.86 70.0902L228.068 73.8803L232.717 69.0869L228.736 62.9836C229.599 61.7016 230.35 60.3361 230.991 58.9426L238.256 59.1377L239.898 52.6721L233.412 49.3836C233.524 47.8508 233.496 46.2902 233.329 44.7295L239.731 41.2459L237.922 34.8361L230.657 35.2262C229.961 33.8049 229.181 32.4672 228.29 31.241L232.104 25.082L227.316 20.4279L221.22 24.4131C219.939 23.5492 218.575 22.7967 217.184 22.1557L217.378 14.882L210.92 13.2377L207.636 19.7311C206.104 19.6197 204.546 19.6475 202.987 19.8148L199.507 13.4049L193.105 15.2164L193.494 22.4902C192.075 23.1869 190.739 23.9672 189.514 24.859L183.306 21.0688L178.657 25.8623L182.638 31.9656C181.775 33.2475 181.023 34.6131 180.383 36.0066L173.118 35.8115L171.475 42.277L177.961 45.5656C177.85 47.0984 177.878 48.659 178.045 50.2197L171.615 53.6475ZM201.01 30.9623C210.113 28.3705 219.605 33.6934 222.194 42.8066C224.783 51.9197 219.466 61.423 210.364 64.0148C201.261 66.6066 191.768 61.2836 189.18 52.1705C186.591 43.0295 191.908 33.5262 201.01 30.9623Z" fill="white"/>
<path d="M200.454 82.3803C200.398 82.3803 200.342 82.3803 200.314 82.3524L193.856 80.7082C193.578 80.6246 193.383 80.3738 193.383 80.0951L193.55 73.2115C192.381 72.6541 191.212 72.0131 190.126 71.2885L184.364 75.0508C184.113 75.218 183.807 75.1902 183.584 74.9672L178.796 70.3131C178.602 70.118 178.546 69.7836 178.713 69.5328L182.304 63.6803C181.58 62.6213 180.884 61.4787 180.3 60.3082L173.452 60.6705C173.173 60.6983 172.895 60.5033 172.812 60.2246L171.002 53.8147C170.919 53.5361 171.058 53.2295 171.308 53.0902L177.349 49.8016C177.238 48.4918 177.21 47.1541 177.293 45.8721L171.169 42.7508C170.919 42.6115 170.779 42.3328 170.835 42.0541L172.477 35.5885C172.561 35.3098 172.812 35.1147 173.09 35.1147L179.966 35.282C180.522 34.1115 181.163 32.941 181.886 31.8541L178.128 26.0852C177.961 25.8344 177.989 25.5279 178.212 25.3049L182.861 20.5115C183.056 20.3164 183.39 20.2606 183.64 20.4279L189.486 24.0229C190.544 23.2984 191.685 22.6016 192.854 22.0164L192.492 15.1606C192.464 14.882 192.659 14.6033 192.938 14.5197L199.34 12.7082C199.618 12.6246 199.925 12.7639 200.064 13.0147L203.349 19.0623C204.657 18.9508 205.993 18.9229 207.274 19.0065L210.391 12.8754C210.531 12.6246 210.809 12.4852 211.087 12.541L217.545 14.1852C217.824 14.2688 218.019 14.5197 218.019 14.7984L217.796 21.7377C218.965 22.2951 220.134 22.9361 221.22 23.6606L226.982 19.8984C227.233 19.7311 227.539 19.759 227.762 19.982L232.55 24.6361C232.744 24.8311 232.8 25.1656 232.633 25.4164L229.042 31.2688C229.766 32.3279 230.462 33.4705 231.046 34.641L237.894 34.2787C238.173 34.2508 238.451 34.4459 238.534 34.7246L240.344 41.1344C240.427 41.4131 240.288 41.7197 240.038 41.859L233.997 45.1475C234.108 46.4574 234.136 47.7951 234.053 49.077L240.177 52.1984C240.427 52.3377 240.567 52.6164 240.511 52.8951L238.869 59.3606C238.785 59.6393 238.534 59.8344 238.256 59.8344L231.38 59.6672C230.824 60.8377 230.183 62.0082 229.46 63.0951L233.218 68.8639C233.385 69.1147 233.357 69.4213 233.134 69.6442L228.485 74.4377C228.29 74.6328 227.956 74.6885 227.706 74.5213L221.86 70.9262C220.802 71.6508 219.661 72.3475 218.492 72.9328L218.854 79.7885C218.882 80.0672 218.687 80.3459 218.408 80.4295L212.006 82.241C211.728 82.3246 211.421 82.1852 211.282 81.9344L207.997 75.8869C206.689 75.9983 205.353 76.0262 204.072 75.9426L200.955 82.0738C200.899 82.241 200.676 82.3803 200.454 82.3803ZM194.608 79.6213L200.12 81.0147L203.182 74.9672C203.293 74.7443 203.543 74.6049 203.766 74.6328C205.242 74.7442 206.773 74.7164 208.304 74.5492C208.554 74.5213 208.777 74.6606 208.916 74.8836L212.145 80.8475L217.601 79.3147L217.239 72.5426C217.239 72.2918 217.351 72.0688 217.573 71.9574C218.937 71.2885 220.273 70.5082 221.47 69.6442C221.665 69.5049 221.944 69.477 222.166 69.6164L227.929 73.1557L231.881 69.0869L228.179 63.4016C228.04 63.2065 228.04 62.9279 228.179 62.7049C229.014 61.4508 229.766 60.1131 230.406 58.7475C230.517 58.5246 230.74 58.3852 230.991 58.3852L237.783 58.5524L239.175 53.0344L233.134 49.9688C232.911 49.8574 232.772 49.6344 232.8 49.3836C232.911 47.9065 232.884 46.3738 232.717 44.841C232.689 44.5902 232.828 44.3672 233.051 44.2279L239.008 40.9951L237.477 35.5328L230.712 35.8951C230.462 35.8951 230.239 35.7836 230.128 35.5328C229.46 34.1393 228.68 32.8295 227.817 31.6311C227.678 31.4361 227.65 31.1574 227.789 30.9344L231.325 25.1656L227.261 21.2082L221.582 24.9147C221.387 25.0541 221.109 25.0541 220.886 24.9147C219.633 24.0787 218.297 23.3262 216.933 22.7131C216.71 22.6016 216.571 22.3787 216.571 22.1279L216.738 15.3279L211.226 13.9344L208.164 19.982C208.053 20.2049 207.83 20.3443 207.58 20.3164C206.104 20.2049 204.573 20.2328 203.042 20.4C202.792 20.4279 202.569 20.2885 202.43 20.0656L199.201 14.1016L193.745 15.6344L194.107 22.4066C194.107 22.6574 193.995 22.8803 193.773 22.9918C192.381 23.6606 191.073 24.441 189.876 25.3049C189.681 25.4443 189.402 25.4721 189.18 25.3328L183.417 21.7934L179.465 25.8623L183.167 31.5475C183.306 31.7426 183.306 32.0213 183.167 32.2443C182.332 33.4984 181.58 34.8361 180.968 36.2016C180.856 36.4246 180.634 36.5639 180.383 36.5639L173.591 36.3967L172.199 41.9147L178.24 44.9803C178.462 45.0918 178.602 45.3147 178.574 45.5656C178.462 47.0426 178.49 48.5754 178.657 50.1082C178.685 50.359 178.546 50.582 178.323 50.7213L172.366 53.9541L173.897 59.4164L180.662 59.0541C180.912 59.0541 181.135 59.1656 181.246 59.3885C181.914 60.782 182.694 62.0918 183.557 63.2902C183.696 63.4852 183.724 63.7639 183.584 63.9869L180.049 69.7557L184.113 73.7131L189.792 70.0065C189.987 69.8672 190.265 69.8672 190.488 70.0065C191.741 70.8426 193.077 71.5951 194.441 72.2082C194.664 72.3197 194.803 72.5426 194.803 72.7934L194.608 79.6213ZM205.659 65.2688C202.653 65.2688 199.702 64.4885 197.002 63.0115C192.854 60.6984 189.876 56.9082 188.567 52.3098C187.287 47.7393 187.843 42.9459 190.154 38.7934C192.464 34.641 196.25 31.659 200.843 30.3492C205.409 29.0672 210.197 29.6246 214.344 31.9377C218.492 34.2508 221.47 38.041 222.779 42.6393C224.059 47.2098 223.503 52.0033 221.192 56.1557C218.882 60.3082 215.096 63.2902 210.503 64.6C208.916 65.0459 207.274 65.2688 205.659 65.2688ZM201.177 31.5475C196.918 32.7459 193.411 35.5328 191.24 39.4065C189.096 43.2524 188.567 47.7393 189.764 51.9754C190.961 56.2393 193.745 59.7508 197.614 61.9246C201.456 64.0705 205.937 64.6 210.169 63.4016C214.428 62.2033 217.935 59.4164 220.106 55.5426C222.25 51.6967 222.779 47.2098 221.582 42.9738C220.385 38.7098 217.601 35.1984 213.732 33.0246C209.89 30.8787 205.436 30.3492 201.177 31.5475Z" fill="#092540"/>
<path d="M65.6116 121.174L68.7015 132.154L81.1446 131.485C82.3137 133.91 83.6777 136.195 85.2088 138.313L78.7228 148.931L86.9068 156.902L97.3457 150.102C99.5448 151.579 101.855 152.889 104.277 153.975L103.943 166.433L114.994 169.248L120.617 158.156C123.234 158.351 125.878 158.295 128.551 158.044L134.48 168.997L145.448 165.903L144.78 153.446C147.202 152.275 149.484 150.91 151.6 149.377L162.206 155.87L170.167 147.677L163.375 137.226C164.85 135.025 166.158 132.711 167.244 130.287L179.687 130.621L182.499 119.557L171.42 113.928C171.615 111.308 171.559 108.661 171.308 105.985L182.248 100.049L179.158 89.0688L166.715 89.7377C165.546 87.3131 164.182 85.0279 162.651 82.9098L169.137 72.2918L160.953 64.3213L150.514 71.1213C148.315 69.6443 146.005 68.3344 143.583 67.2475L143.917 54.7902L132.866 51.9754L127.243 63.0672C124.626 62.8721 121.981 62.9279 119.309 63.1787L113.38 52.2262L102.412 55.3197L103.08 67.777C100.658 68.9475 98.3756 70.3131 96.26 71.8459L85.6542 65.3525L77.665 73.518L84.4572 83.9688C82.9818 86.1705 81.6735 88.4836 80.5878 90.9082L68.1448 90.5738L65.3332 101.638L76.4123 107.267C76.2175 109.887 76.2731 112.534 76.5237 115.21L65.6116 121.174ZM115.941 82.3246C131.529 77.9213 147.758 86.9787 152.157 102.613C156.555 118.22 147.508 134.467 131.891 138.87C116.303 143.274 100.074 134.216 95.6755 118.582C91.2772 102.975 100.324 86.7557 115.941 82.3246Z" fill="white"/>
<path d="M114.966 169.861C114.911 169.861 114.855 169.861 114.827 169.833L103.776 167.018C103.498 166.934 103.303 166.684 103.303 166.405L103.609 154.338C101.438 153.334 99.3221 152.136 97.3178 150.798L87.213 157.375C86.9625 157.543 86.6563 157.515 86.4336 157.292L78.2495 149.321C78.0547 149.126 77.999 148.792 78.166 148.541L84.4572 138.285C83.0932 136.334 81.8405 134.244 80.7827 132.07L68.7571 132.711C68.4788 132.739 68.2004 132.544 68.1169 132.266L65.027 121.285C64.9435 121.007 65.0827 120.7 65.3332 120.561L75.9112 114.82C75.6885 112.395 75.6607 109.97 75.7999 107.574L65.0827 102.111C64.8321 101.972 64.693 101.693 64.7486 101.415L67.5602 90.3508C67.6437 90.0721 67.8664 89.8771 68.1726 89.8771L80.226 90.1836C81.2281 88.0098 82.4251 85.8918 83.7612 83.8852L77.1361 73.8525C76.969 73.6016 76.9969 73.2951 77.2196 73.0721L85.1809 64.8787C85.3758 64.6836 85.7098 64.6279 85.9604 64.7951L96.2043 71.0934C98.1529 69.7279 100.241 68.4738 102.412 67.4148L101.772 55.3754C101.744 55.0967 101.939 54.818 102.217 54.7344L113.185 51.641C113.463 51.5574 113.769 51.6967 113.909 51.9475L119.643 62.5377C122.065 62.3148 124.487 62.2869 126.881 62.4262L132.337 51.6967C132.476 51.4459 132.754 51.3066 133.033 51.3623L144.084 54.177C144.362 54.2607 144.557 54.5115 144.557 54.7902L144.251 66.8574C146.422 67.8607 148.538 69.059 150.542 70.3967L160.647 63.8197C160.897 63.6525 161.204 63.6803 161.426 63.9033L169.61 71.8738C169.805 72.0689 169.861 72.4033 169.694 72.6541L163.403 82.9098C164.767 84.8607 165.991 86.9508 167.077 89.1246L179.103 88.4836C179.381 88.4557 179.659 88.6508 179.743 88.9295L182.833 99.9098C182.916 100.189 182.777 100.495 182.527 100.634L171.949 106.375C172.171 108.8 172.199 111.225 172.06 113.621L182.777 119.084C183.028 119.223 183.167 119.502 183.111 119.78L180.3 130.844C180.216 131.123 179.966 131.318 179.687 131.318L167.634 131.011C166.632 133.185 165.435 135.303 164.099 137.31L170.668 147.426C170.835 147.677 170.807 147.984 170.585 148.207L162.623 156.4C162.428 156.595 162.094 156.651 161.844 156.484L151.6 150.185C149.651 151.551 147.563 152.805 145.392 153.864L146.032 165.903C146.06 166.182 145.865 166.461 145.587 166.544L134.619 169.638C134.341 169.721 134.035 169.582 133.896 169.331L128.161 158.741C125.739 158.964 123.317 158.992 120.924 158.852L115.523 169.526C115.412 169.749 115.189 169.861 114.966 169.861ZM104.528 165.959L114.632 168.523L120.033 157.877C120.144 157.654 120.395 157.515 120.617 157.543C123.178 157.71 125.823 157.682 128.467 157.431C128.718 157.403 128.941 157.543 129.08 157.766L134.786 168.272L144.808 165.43L144.167 153.474C144.167 153.223 144.279 153 144.501 152.889C146.868 151.718 149.15 150.38 151.238 148.875C151.433 148.736 151.711 148.708 151.934 148.848L162.122 155.09L169.388 147.621L162.874 137.589C162.735 137.393 162.735 137.115 162.874 136.892C164.321 134.718 165.63 132.433 166.687 130.036C166.799 129.813 167.021 129.674 167.272 129.674L179.214 129.98L181.775 119.864L171.141 114.457C170.919 114.346 170.779 114.123 170.807 113.872C170.974 111.308 170.946 108.661 170.696 106.013C170.668 105.762 170.807 105.539 171.03 105.4L181.524 99.6869L178.685 89.6541L166.743 90.2951C166.493 90.2951 166.27 90.1836 166.158 89.9607C164.989 87.5639 163.653 85.3066 162.15 83.2164C162.011 83.0213 161.983 82.7426 162.122 82.5197L168.358 72.3197L160.897 65.1016L150.876 71.623C150.681 71.7623 150.403 71.7623 150.18 71.623C148.009 70.1738 145.726 68.8639 143.332 67.8049C143.11 67.6934 142.97 67.4705 142.97 67.2197L143.277 55.2639L133.172 52.7L127.771 63.3459C127.66 63.5689 127.437 63.7082 127.187 63.6803C124.626 63.5131 121.981 63.541 119.337 63.7918C119.086 63.8197 118.864 63.6803 118.724 63.4574L113.046 52.9508L103.024 55.7934L103.665 67.7492C103.665 68 103.553 68.2229 103.331 68.3344C100.937 69.5049 98.6818 70.8426 96.5941 72.3475C96.3992 72.4869 96.1208 72.5148 95.8981 72.3754L85.7098 66.1328L78.4444 73.6016L84.9582 83.6344C85.0974 83.8295 85.0974 84.1082 84.9582 84.3312C83.5107 86.5049 82.2302 88.7902 81.1446 91.1869C81.0332 91.4098 80.8105 91.5492 80.56 91.5492L68.618 91.2426L66.057 101.359L76.6907 106.766C76.9134 106.877 77.0526 107.1 77.0247 107.351C76.8577 109.915 76.8855 112.562 77.1361 115.21C77.1639 115.461 77.0247 115.684 76.802 115.823L66.3075 121.536L69.1469 131.569L81.0889 130.928C81.3394 130.9 81.5621 131.039 81.6735 131.262C82.8426 133.659 84.1788 135.916 85.682 138.007C85.8212 138.202 85.849 138.48 85.7098 138.703L79.4744 148.903L86.9346 156.177L96.9559 149.656C97.1508 149.516 97.4292 149.516 97.6519 149.656C99.8231 151.105 102.106 152.415 104.5 153.474C104.722 153.585 104.862 153.808 104.862 154.059L104.528 165.959ZM123.93 140.626C110.847 140.626 98.821 131.987 95.0909 118.777C90.6091 102.864 99.8788 86.2541 115.774 81.7393L115.941 82.3246L115.774 81.7393C123.485 79.5656 131.557 80.5131 138.544 84.4148C145.531 88.3164 150.57 94.7262 152.769 102.446C154.94 110.166 153.994 118.248 150.097 125.243C146.199 132.238 139.797 137.282 132.086 139.484C129.358 140.236 126.63 140.626 123.93 140.626ZM123.958 81.823C121.341 81.823 118.697 82.1852 116.108 82.9098C100.853 87.2295 91.9731 103.143 96.2878 118.415C100.603 133.687 116.497 142.577 131.752 138.257C139.129 136.167 145.253 131.318 149.011 124.63C152.769 117.913 153.66 110.166 151.572 102.752C149.484 95.3672 144.641 89.2361 137.96 85.4738C133.589 83.0771 128.801 81.823 123.958 81.823Z" fill="#092540"/>
<path d="M481.217 0.613129H352.972C347.961 0.613129 343.897 4.68198 343.897 9.69837V151.356C343.897 156.372 347.961 160.441 352.972 160.441H481.217C486.227 160.441 490.291 156.372 490.291 151.356V9.69837C490.264 4.68198 486.199 0.613129 481.217 0.613129Z" fill="white"/>
<path d="M481.217 161.054H352.972C347.627 161.054 343.285 156.707 343.285 151.356V9.69836C343.285 4.34754 347.627 0 352.972 0H481.217C486.561 0 490.904 4.34754 490.904 9.69836V151.356C490.876 156.707 486.533 161.054 481.217 161.054ZM352.972 1.2541C348.323 1.2541 344.537 5.04426 344.537 9.69836V151.356C344.537 156.01 348.323 159.8 352.972 159.8H481.217C485.865 159.8 489.651 156.01 489.651 151.356V9.69836C489.651 5.04426 485.865 1.2541 481.217 1.2541H352.972Z" fill="#092540"/>
<path d="M483.193 16.1361H351.107C350.773 16.1361 350.495 15.8574 350.495 15.5229C350.495 15.1885 350.773 14.9098 351.107 14.9098H483.193C483.527 14.9098 483.805 15.1885 483.805 15.5229C483.805 15.8574 483.527 16.1361 483.193 16.1361Z" fill="#092540"/>
<path d="M353.417 9.9213C354.693 9.9213 355.728 8.88569 355.728 7.60819C355.728 6.33069 354.693 5.29507 353.417 5.29507C352.141 5.29507 351.107 6.33069 351.107 7.60819C351.107 8.88569 352.141 9.9213 353.417 9.9213Z" fill="#092540"/>
<path d="M362.715 9.9213C363.991 9.9213 365.025 8.88569 365.025 7.60819C365.025 6.33069 363.991 5.29507 362.715 5.29507C361.439 5.29507 360.404 6.33069 360.404 7.60819C360.404 8.88569 361.439 9.9213 362.715 9.9213Z" fill="#092540"/>
<path d="M372.012 9.9213C373.288 9.9213 374.323 8.88569 374.323 7.60819C374.323 6.33069 373.288 5.29507 372.012 5.29507C370.736 5.29507 369.702 6.33069 369.702 7.60819C369.702 8.88569 370.736 9.9213 372.012 9.9213Z" fill="#092540"/>
<path d="M483.193 8.22132H470.11C469.776 8.22132 469.497 7.94263 469.497 7.6082C469.497 7.27377 469.776 6.99509 470.11 6.99509H483.193C483.527 6.99509 483.805 7.27377 483.805 7.6082C483.805 7.94263 483.527 8.22132 483.193 8.22132Z" fill="#092540"/>
<path d="M464.208 8.22132H410.01C409.676 8.22132 409.397 7.94263 409.397 7.6082C409.397 7.27377 409.676 6.99509 410.01 6.99509H464.208C464.542 6.99509 464.821 7.27377 464.821 7.6082C464.821 7.94263 464.542 8.22132 464.208 8.22132Z" fill="#092540"/>
<path d="M395.757 8.22132H384.205C383.871 8.22132 383.593 7.94263 383.593 7.6082C383.593 7.27377 383.871 6.99509 384.205 6.99509H395.757C396.091 6.99509 396.37 7.27377 396.37 7.6082C396.37 7.94263 396.091 8.22132 395.757 8.22132Z" fill="#092540"/>
<path d="M394.866 76.4164C399.098 69.0311 406.948 63.7918 416.078 62.8442L416.718 26.6705C390.496 26.7541 367.336 41.5524 356.813 63.4295L394.866 76.4164Z" fill="white"/>
<path d="M394.866 77.0295C394.811 77.0295 394.727 77.0295 394.672 77.0016L356.591 64.0147C356.424 63.959 356.285 63.8197 356.229 63.6803C356.173 63.5131 356.173 63.318 356.229 63.1787C367.057 40.7164 390.802 26.1688 416.691 26.0852C416.885 26.0852 417.025 26.141 417.136 26.2803C417.247 26.3918 417.331 26.559 417.303 26.7262L416.663 62.9C416.663 63.2065 416.412 63.4852 416.106 63.5131C407.337 64.4328 399.599 69.3656 395.368 76.7787C395.312 76.918 395.089 77.0295 394.866 77.0295ZM357.676 63.0672L394.588 75.6639C398.958 68.3344 406.697 63.3738 415.466 62.2869L416.078 27.3115C391.136 27.618 368.338 41.5803 357.676 63.0672Z" fill="#092540"/>
<path d="M393.085 37.1492C392.834 37.1492 392.612 37.0098 392.5 36.759C392.361 36.4525 392.528 36.0902 392.834 35.9508C398.764 33.5541 404.999 32.0492 411.374 31.4918C411.708 31.4639 412.014 31.7148 412.042 32.0492C412.07 32.3836 411.819 32.6902 411.485 32.718C405.222 33.2475 399.098 34.7246 393.308 37.0934C393.252 37.1213 393.168 37.1492 393.085 37.1492Z" fill="#092540"/>
<path d="M372.179 51.0836C372.012 51.0836 371.873 51.0279 371.734 50.9164C371.484 50.6656 371.484 50.2754 371.734 50.0525C376.216 45.482 381.393 41.6361 387.156 38.5984C387.462 38.4311 387.824 38.5426 387.991 38.8492C388.158 39.1557 388.046 39.518 387.74 39.6852C382.089 42.6393 377.023 46.4295 372.625 50.8885C372.513 51.0279 372.346 51.0836 372.179 51.0836Z" fill="#092540"/>
<path d="M445.474 92.441C443.331 104.313 432.502 113.649 419.279 114.067C415.327 114.179 411.569 113.51 408.145 112.172L387.462 144.221C397.066 148.569 407.922 150.687 419.279 150.046C452.294 148.151 478.266 123.264 481.161 93.3049L445.474 92.441Z" fill="white"/>
<path d="M415.299 150.77C405.556 150.77 395.897 148.736 387.184 144.779C387.017 144.695 386.905 144.556 386.849 144.389C386.794 144.221 386.822 144.026 386.933 143.887L407.616 111.838C407.783 111.587 408.089 111.475 408.367 111.587C411.819 112.925 415.494 113.566 419.279 113.454C431.973 113.064 442.746 104.174 444.889 92.3295C444.945 92.0229 445.224 91.8279 445.502 91.8279L481.161 92.6918C481.328 92.6918 481.495 92.7754 481.606 92.8869C481.718 93.0262 481.773 93.1934 481.773 93.3606C478.823 124.156 451.96 148.792 419.335 150.659C417.971 150.743 416.635 150.77 415.299 150.77ZM388.353 143.97C397.929 148.151 408.562 150.046 419.224 149.433C451.014 147.593 477.208 123.793 480.437 93.918L445.975 93.0819C443.498 105.233 432.363 114.29 419.279 114.708C415.494 114.82 411.847 114.234 408.367 112.952L388.353 143.97Z" fill="#092540"/>
<path d="M415.243 145.587C408.284 145.587 401.464 144.472 395.034 142.298C394.699 142.187 394.532 141.825 394.644 141.518C394.755 141.184 395.117 141.016 395.423 141.128C401.742 143.274 408.395 144.333 415.243 144.333C416.468 144.333 417.721 144.305 418.945 144.221C419.279 144.193 419.586 144.472 419.614 144.807C419.641 145.141 419.363 145.448 419.029 145.475C417.748 145.559 416.496 145.587 415.243 145.587Z" fill="#092540"/>
<path d="M432.029 143.357C431.75 143.357 431.5 143.162 431.444 142.911C431.361 142.577 431.556 142.243 431.89 142.159C453.575 136.251 470.332 119 474.564 98.2377C474.619 97.9033 474.953 97.6803 475.287 97.7639C475.621 97.8197 475.844 98.1541 475.761 98.4885C471.446 119.697 454.326 137.31 432.196 143.357C432.14 143.357 432.084 143.357 432.029 143.357Z" fill="#092540"/>
<path d="M380.976 140.849L401.826 108.716C395.59 104.09 391.582 96.9 391.582 88.7344C391.582 86.7557 391.804 84.8328 392.25 82.9934L354.03 70.1738C351.97 76.1934 350.856 82.6033 350.856 89.236C350.884 111.225 362.938 130.148 380.976 140.849Z" fill="white"/>
<path d="M380.976 141.49C380.865 141.49 380.753 141.462 380.67 141.407C361.629 130.092 350.272 110.611 350.272 89.236C350.272 82.659 351.357 76.1934 353.473 69.9508C353.584 69.6164 353.946 69.4492 354.252 69.5606L392.473 82.3803C392.779 82.4918 392.946 82.7983 392.89 83.1049C392.445 84.9442 392.222 86.8115 392.222 88.7065C392.222 96.3705 395.869 103.477 402.215 108.187C402.466 108.382 402.549 108.744 402.355 109.023L381.505 141.156C381.366 141.379 381.171 141.49 380.976 141.49ZM354.447 70.9541C352.499 76.8623 351.524 83.0213 351.524 89.236C351.524 109.97 362.464 128.893 380.781 140.013L400.991 108.856C394.616 103.923 390.942 96.5934 390.942 88.7065C390.942 86.9229 391.136 85.1115 391.526 83.3557L354.447 70.9541Z" fill="#092540"/>
<path d="M427.937 61.4787C439.99 63.2623 449.26 72.6262 450.373 84.1918L508.692 85.8918C508.692 85.8639 508.692 85.8361 508.692 85.8082C508.692 42.9738 474.591 6.32623 428.995 1.61639L427.937 61.4787Z" fill="white"/>
<path d="M508.692 86.5049C508.692 86.5049 508.664 86.5049 508.692 86.5049L450.373 84.8049C450.067 84.8049 449.817 84.5541 449.761 84.2475C448.675 72.9606 439.684 63.8475 427.853 62.0918C427.547 62.0361 427.324 61.7852 427.324 61.4787L428.382 1.6164C428.382 1.44918 428.466 1.28197 428.605 1.17049C428.744 1.05902 428.911 1.00328 429.078 1.03115C451.208 3.3164 471.585 13.2656 486.422 29.0393C501.204 44.7295 509.332 64.9066 509.332 85.8639C509.332 86.0311 509.276 86.2262 509.137 86.3377C508.998 86.4213 508.859 86.5049 508.692 86.5049ZM450.93 83.6066L508.079 85.2508C507.773 42.7229 474.202 7.21804 429.607 2.31312L428.577 60.9492C440.491 62.9557 449.594 72.1525 450.93 83.6066Z" fill="#092540"/>
<path d="M362.548 70.3967H286.219C282.461 70.3967 279.399 73.4623 279.399 77.2246V178.751C279.399 182.513 282.461 185.579 286.219 185.579H362.548C366.306 185.579 369.368 182.513 369.368 178.751V77.2246C369.368 73.4623 366.306 70.3967 362.548 70.3967Z" fill="white"/>
<path d="M362.548 186.192H286.219C282.127 186.192 278.787 182.848 278.787 178.751V77.2246C278.787 73.1279 282.127 69.7836 286.219 69.7836H362.548C366.64 69.7836 369.98 73.1279 369.98 77.2246V178.751C369.98 182.848 366.64 186.192 362.548 186.192ZM286.219 71.0098C282.795 71.0098 280.039 73.7967 280.039 77.1967V178.723C280.039 182.151 282.823 184.91 286.219 184.91H362.548C365.972 184.91 368.728 182.123 368.728 178.723V77.2246C368.728 73.7967 365.944 71.0377 362.548 71.0377H286.219V71.0098Z" fill="#092540"/>
<path d="M309.713 103.31H290.116V167.77H309.713V103.31Z" fill="white"/>
<path d="M309.713 168.384H290.116C289.782 168.384 289.504 168.105 289.504 167.77V103.31C289.504 102.975 289.782 102.697 290.116 102.697H309.713C310.047 102.697 310.326 102.975 310.326 103.31V167.77C310.326 168.105 310.047 168.384 309.713 168.384ZM290.729 167.157H309.073V103.923H290.729V167.157Z" fill="#092540"/>
<path d="M334.182 85.5295H314.585V167.77H334.182V85.5295Z" fill="white"/>
<path d="M334.182 168.384H314.585C314.251 168.384 313.972 168.105 313.972 167.77V85.5295C313.972 85.1951 314.251 84.9164 314.585 84.9164H334.182C334.516 84.9164 334.794 85.1951 334.794 85.5295V167.77C334.794 168.105 334.516 168.384 334.182 168.384ZM315.225 167.157H333.57V86.1426H315.225V167.157Z" fill="#092540"/>
<path d="M358.679 129.339H339.081V167.77H358.679V129.339Z" fill="white"/>
<path d="M358.679 168.384H339.081C338.747 168.384 338.469 168.105 338.469 167.77V129.339C338.469 129.005 338.747 128.726 339.081 128.726H358.679C359.013 128.726 359.291 129.005 359.291 129.339V167.77C359.291 168.105 359.013 168.384 358.679 168.384ZM339.694 167.157H358.038V129.952H339.694V167.157Z" fill="#092540"/>
<path d="M210.28 417.057L212.006 433.389L223.029 434.698V415.33L210.28 417.057Z" fill="white"/>
<path d="M223.029 435.311C223.001 435.311 222.974 435.311 222.946 435.311L211.922 434.03C211.644 434.002 211.421 433.779 211.366 433.472L209.64 417.141C209.612 416.807 209.835 416.5 210.169 416.472L222.918 414.744C223.085 414.716 223.28 414.772 223.419 414.884C223.558 414.995 223.642 415.162 223.642 415.357V434.726C223.642 434.893 223.558 435.061 223.447 435.2C223.336 435.256 223.196 435.311 223.029 435.311ZM212.563 432.831L222.417 433.974V416.026L210.976 417.587L212.563 432.831Z" fill="#092540"/>
<path d="M224.783 463.125C220.19 463.766 212.646 464.351 203.794 463.125C200.899 462.734 198.978 459.92 199.674 457.049C201.623 449.134 204.991 434.085 210.753 427.118L212.173 430.908L214.149 427.341C214.428 426.867 214.901 426.533 215.458 426.449L219.8 425.892C220.691 425.78 221.554 426.366 221.721 427.257L222.417 430.546L223.92 426.254L228.959 457.607C229.293 460.282 227.428 462.734 224.783 463.125Z" fill="white"/>
<path d="M214.344 464.462C211.115 464.462 207.524 464.267 203.71 463.738C202.152 463.515 200.76 462.651 199.869 461.341C198.978 460.031 198.7 458.415 199.062 456.91L199.479 455.21C201.456 447.044 204.796 433.333 210.252 426.728C210.391 426.561 210.614 426.477 210.837 426.505C211.059 426.533 211.226 426.7 211.31 426.895L212.256 429.431L213.593 427.034C213.954 426.366 214.623 425.92 215.374 425.836L219.717 425.279C220.914 425.111 222.083 425.948 222.333 427.146L222.556 428.261L223.336 426.059C223.419 425.78 223.697 425.613 223.976 425.641C224.254 425.669 224.477 425.892 224.532 426.17L229.571 457.523C229.961 460.561 227.845 463.348 224.867 463.766L224.783 463.152L224.867 463.766C222.139 464.128 218.548 464.462 214.344 464.462ZM210.531 428.372C205.631 435.033 202.541 447.769 200.676 455.489L200.259 457.216C199.953 458.415 200.175 459.641 200.871 460.672C201.567 461.675 202.653 462.372 203.85 462.539C212.535 463.738 219.967 463.208 224.672 462.539C226.982 462.205 228.625 460.059 228.318 457.718L223.67 428.818L222.974 430.825C222.89 431.075 222.612 431.27 222.361 431.243C222.083 431.215 221.86 431.02 221.804 430.741L221.109 427.452C220.997 426.867 220.44 426.477 219.856 426.561L215.513 427.118C215.151 427.174 214.845 427.369 214.678 427.703L212.702 431.27C212.59 431.493 212.368 431.605 212.117 431.577C211.867 431.549 211.672 431.41 211.588 431.187L210.531 428.372Z" fill="#092540"/>
<path d="M212.006 459.195C209.055 459.195 205.882 458.944 202.708 458.22C202.374 458.136 202.179 457.802 202.235 457.467C202.319 457.133 202.653 456.938 202.987 456.993C213.787 459.446 225.117 456.297 225.228 456.269C225.562 456.185 225.897 456.352 226.008 456.687C226.091 457.021 225.924 457.356 225.59 457.467C225.228 457.551 219.355 459.195 212.006 459.195Z" fill="#092540"/>
<path d="M209.361 447.072C209.027 447.072 208.749 446.821 208.749 446.459C208.749 446.125 208.999 445.818 209.361 445.818L219.689 445.484C220.023 445.484 220.329 445.734 220.329 446.097C220.329 446.431 220.079 446.738 219.717 446.738L209.361 447.072Z" fill="#092540"/>
<path d="M261.945 408.362L263.616 432.218H276.866L277.478 408.362H261.945Z" fill="white"/>
<path d="M276.866 432.831H263.616C263.281 432.831 263.031 432.58 263.003 432.246L261.361 408.418C261.361 408.251 261.416 408.084 261.528 407.944C261.639 407.805 261.806 407.749 261.973 407.749H277.506C277.673 407.749 277.84 407.805 277.952 407.944C278.063 408.056 278.119 408.223 278.119 408.39L277.506 432.218C277.478 432.552 277.2 432.831 276.866 432.831ZM264.172 431.577H276.253L276.838 408.975H262.586L264.172 431.577Z" fill="#092540"/>
<path d="M260.136 445.651C260.108 447.908 261.639 449.887 263.838 450.389C271.466 452.172 288.641 456.13 293.568 456.854C299.943 457.802 307.737 455.851 311.105 452.116C314.474 448.382 303.589 439.492 298.412 436.259C290.729 431.438 283.352 421.934 280.262 421.516C277.172 421.098 271.382 430.072 271.382 430.072L261.945 426.115C261.945 426.115 260.303 434.225 260.136 445.651Z" fill="white"/>
<path d="M296.881 457.718C295.712 457.718 294.57 457.634 293.457 457.467C288.502 456.743 270.992 452.702 263.699 451.002C261.249 450.416 259.496 448.187 259.524 445.651C259.691 434.28 261.333 426.087 261.361 426.003C261.389 425.808 261.528 425.669 261.667 425.585C261.834 425.502 262.029 425.502 262.196 425.557L271.159 429.32C272.635 427.118 277.283 420.485 280.346 420.931C282.099 421.182 284.605 423.551 288.056 426.839C291.285 429.905 294.96 433.389 298.718 435.757C302.866 438.349 311.662 445.233 312.302 449.887C312.441 450.946 312.191 451.838 311.551 452.534C308.711 455.711 302.699 457.718 296.881 457.718ZM262.419 427.007C262.029 429.264 260.888 436.398 260.748 445.679C260.721 447.63 262.085 449.357 263.977 449.803C271.271 451.503 288.724 455.516 293.652 456.269C300.026 457.216 307.487 455.238 310.632 451.726C311.022 451.28 311.161 450.751 311.077 450.082C310.521 446.125 302.337 439.492 298.078 436.816C294.208 434.392 290.478 430.852 287.221 427.759C284.298 424.972 281.543 422.352 280.179 422.185C278.23 421.907 274.082 427.118 271.911 430.462C271.744 430.713 271.438 430.825 271.159 430.685L262.419 427.007Z" fill="#092540"/>
<path d="M296.741 453.371C282.962 453.371 264.395 445.874 263.365 445.456C263.059 445.316 262.892 444.954 263.031 444.648C263.17 444.341 263.532 444.174 263.838 444.313C264.172 444.452 297.799 458.052 307.681 449.107C307.932 448.884 308.322 448.884 308.544 449.162C308.767 449.413 308.767 449.803 308.489 450.026C305.788 452.451 301.557 453.371 296.741 453.371Z" fill="#092540"/>
<path d="M282.044 438.934C281.877 438.934 281.709 438.879 281.57 438.739C281.348 438.489 281.348 438.098 281.626 437.875L288.363 431.772C288.613 431.549 289.003 431.549 289.225 431.828C289.448 432.079 289.448 432.469 289.17 432.692L282.433 438.795C282.322 438.879 282.183 438.934 282.044 438.934Z" fill="#092540"/>
<path d="M206.522 253.021C206.522 253.021 202.402 327.515 200.259 353.238C198.115 378.961 205.297 420.29 205.297 420.29L225.785 419.203C225.785 419.203 227.177 368.928 228.708 354.993C228.708 354.993 237.365 336.071 239.926 319.21C242.487 302.321 251.228 275.679 251.228 275.679C251.228 275.679 258.327 408.725 258.995 419.175C258.995 419.175 275.056 419.9 280.819 416.277C280.819 416.277 291.035 367.757 289.56 341.366C288.084 314.974 289.699 249.398 289.699 249.398L206.522 253.021Z" fill="#092540"/>
<path d="M224.922 355.607H218.659C218.325 355.607 218.047 355.328 218.047 354.993C218.047 354.659 218.325 354.38 218.659 354.38H224.922C225.256 354.38 225.535 354.659 225.535 354.993C225.562 355.328 225.284 355.607 224.922 355.607Z" fill="white"/>
<path d="M269.545 394.316C269.545 394.316 269.517 394.316 269.545 394.316C269.183 394.316 268.932 394.038 268.932 393.675C269.155 381.385 282.628 359.341 283.213 358.393C283.38 358.115 283.769 358.003 284.076 358.198C284.354 358.366 284.465 358.756 284.271 359.062C284.131 359.285 270.38 381.748 270.185 393.703C270.157 394.038 269.879 394.316 269.545 394.316Z" fill="white"/>
<path d="M296.185 133.882C297.688 133.771 305.009 148.764 327.891 148.151C350.801 147.51 369.173 121.871 369.173 121.871C369.173 121.871 377.079 108.521 383.091 103.7C389.104 98.8787 390.023 98.2377 390.023 98.2377C390.023 98.2377 391.916 100.746 390.023 103.7C388.13 106.654 382.952 112.172 382.952 112.172C382.952 112.172 388.687 115.321 386.098 121.871C383.119 129.395 374.768 128.81 374.768 128.81C374.768 128.81 357.788 204.084 287.583 168.328L296.185 133.882Z" fill="white"/>
<path d="M322.407 178.556C311.746 178.556 300.026 175.323 287.305 168.857C287.054 168.718 286.915 168.439 286.971 168.161L295.544 133.743C295.6 133.492 295.823 133.297 296.101 133.269C296.714 133.213 297.187 133.771 298.384 135.08C301.863 138.954 309.992 148.039 327.863 147.538C350.216 146.925 368.477 121.759 368.672 121.508C368.978 121.007 376.689 108.048 382.702 103.198C388.659 98.4049 389.661 97.7361 389.689 97.7082C389.967 97.5131 390.329 97.5967 390.524 97.8476C390.607 97.959 392.64 100.746 390.552 104.007C388.993 106.459 385.263 110.584 383.899 112.061C385.402 113.203 388.882 116.52 386.682 122.093C384.038 128.838 377.19 129.395 375.242 129.423C374.184 133.603 365.86 163.144 342.199 174.264C336.103 177.107 329.505 178.556 322.407 178.556ZM288.335 167.966C308.934 178.361 326.889 180.089 341.698 173.149C366.501 161.5 374.1 128.977 374.184 128.671C374.239 128.364 374.518 128.169 374.824 128.197C375.158 128.225 382.785 128.671 385.541 121.648C387.879 115.684 382.897 112.841 382.674 112.73C382.507 112.646 382.396 112.479 382.368 112.284C382.34 112.089 382.396 111.893 382.535 111.754C382.59 111.698 387.712 106.236 389.55 103.366C390.691 101.554 390.246 99.9377 389.884 99.1574C389.132 99.7426 387.351 101.108 383.509 104.202C377.663 108.911 369.813 122.093 369.73 122.205C369.507 122.511 350.884 148.179 327.919 148.792C327.446 148.792 326.972 148.82 326.499 148.82C309.045 148.82 300.973 139.818 297.493 135.916C297.159 135.554 296.853 135.192 296.574 134.913L288.335 167.966Z" fill="#092540"/>
<path d="M182.666 168.3C182.666 168.3 189.542 123.877 213.815 112.952C238.089 102.028 270.964 103.533 280.011 108.995C289.058 114.457 312.692 139.121 312.692 139.121L291.814 168.3C291.814 168.3 296.574 246.807 292.816 267.541C292.816 267.541 269.6 270.244 259.746 266.37C249.892 262.497 217.518 257.062 202.04 264.169L204.88 164.761L182.666 168.3Z" fill="white"/>
<path d="M276.448 269.074C270.296 269.074 263.755 268.6 259.551 266.928C249.864 263.11 217.796 257.592 202.346 264.698C202.152 264.782 201.929 264.782 201.734 264.643C201.567 264.531 201.456 264.308 201.456 264.113L204.239 165.457L182.749 168.885C182.554 168.913 182.36 168.857 182.22 168.718C182.081 168.579 182.026 168.384 182.053 168.189C182.332 166.349 189.263 123.32 213.565 112.367C237.504 101.61 270.575 102.557 280.345 108.438C289.365 113.872 312.191 137.672 313.137 138.675C313.332 138.898 313.36 139.233 313.193 139.456L292.455 168.439C292.733 173.066 297.075 247.587 293.429 267.597C293.373 267.875 293.15 268.071 292.9 268.098C292.343 268.21 284.716 269.074 276.448 269.074ZM223.113 260.044C237.783 260.044 253.65 263.249 259.997 265.757C268.821 269.241 289.003 267.29 292.288 266.928C295.851 245.831 291.258 169.08 291.202 168.3C291.202 168.161 291.23 168.021 291.313 167.91L311.885 139.177C308.906 136.084 287.973 114.513 279.705 109.525C271.187 104.397 238.367 102.557 214.066 113.51C192.214 123.348 184.531 161.361 183.417 167.548L204.796 164.148C204.991 164.12 205.158 164.175 205.297 164.287C205.436 164.398 205.52 164.593 205.52 164.761L202.736 263.193C208.22 260.908 215.513 260.044 223.113 260.044Z" fill="#092540"/>
<path d="M223.419 244.298C223.113 244.298 222.862 244.075 222.807 243.797C222.751 243.462 222.974 243.128 223.308 243.072C260.219 236.523 270.992 210.939 271.104 210.689C271.243 210.382 271.605 210.215 271.911 210.354C272.217 210.493 272.384 210.856 272.245 211.162C272.134 211.413 261.138 237.638 223.53 244.298C223.475 244.271 223.447 244.298 223.419 244.298Z" fill="#092540"/>
<path d="M290.061 199.346H242.821L257.603 146.479H304.87L290.061 199.346Z" fill="#092540"/>
<path d="M186.813 168.467L210.725 157.766C210.725 157.766 207.357 198.343 255.738 179.615C255.738 179.615 253.956 174.403 254.207 168.3C254.457 162.197 258.104 168.105 258.605 173.066C259.106 178.026 270.463 176.02 277.311 174.069C284.131 172.118 293.095 173.4 277.311 182.123C261.528 190.846 258.076 186.944 258.076 186.944C258.076 186.944 237.922 215.148 212.841 209.156C181.97 201.771 186.813 168.467 186.813 168.467Z" fill="white"/>
<path d="M219.828 210.605C217.49 210.605 215.124 210.354 212.674 209.769C196.445 205.895 190.098 194.831 187.649 186.22C185.004 176.939 186.145 168.718 186.201 168.384C186.229 168.161 186.368 167.993 186.563 167.91L210.475 157.208C210.67 157.125 210.92 157.152 211.087 157.264C211.254 157.403 211.366 157.598 211.338 157.821C211.338 157.961 210.224 172.703 219.884 179.921C227.344 185.495 239.147 185.272 254.986 179.252C254.541 177.72 253.399 173.316 253.594 168.3C253.622 167.52 253.733 165.151 255.153 165.123H255.181C257.046 165.123 258.883 169.833 259.217 173.038C259.273 173.707 259.607 174.236 260.192 174.626C263.031 176.549 271.076 175.211 277.116 173.484C280.29 172.592 285.662 171.979 286.581 174.208C287.36 176.131 284.438 178.89 277.59 182.652C264.646 189.787 259.746 188.672 258.16 187.808C255.626 191.152 239.871 210.605 219.828 210.605ZM187.398 168.885C187.203 170.53 186.563 177.915 188.873 185.913C192.325 197.925 200.426 205.561 212.98 208.543C215.318 209.1 217.601 209.351 219.856 209.351C241.04 209.351 257.408 186.777 257.575 186.526C257.686 186.359 257.853 186.275 258.048 186.275C258.243 186.275 258.41 186.331 258.549 186.47C258.577 186.498 262.112 189.759 277.033 181.51C285.969 176.577 285.551 174.793 285.468 174.626C285.078 173.707 281.459 173.484 277.506 174.626C274.305 175.546 263.56 178.305 259.551 175.602C258.661 174.989 258.132 174.152 258.02 173.121C257.658 169.526 255.821 166.433 255.209 166.321C255.209 166.349 254.903 166.684 254.847 168.328C254.596 174.208 256.322 179.364 256.35 179.392C256.461 179.698 256.294 180.061 255.988 180.172C239.453 186.582 227.066 186.805 219.16 180.897C210.391 174.32 210.002 162.336 210.085 158.741L187.398 168.885Z" fill="#092540"/>
<path d="M250.671 92.6918C248.611 94.5869 244.575 96.9 241.402 95.3115C239.036 94.1131 237.727 91.0476 237.811 87.5361C236.725 87.6197 235.305 87.5361 234.275 86.6443C232.717 85.2508 232.995 82.6869 233.051 81.0148C233.329 73.2672 228.847 72.0689 229.933 66.8017C230.796 62.6771 234.053 60.1967 234.637 59.7508C237.699 57.4377 239.787 58.1623 244.909 56.8246C253.566 54.5394 253.845 50.8049 259.551 50.8049C259.885 50.8049 267.652 50.8885 270.296 56.2672C272.44 60.6426 269.935 65.9377 267.346 68.7246C264.005 72.3476 261.583 70.5639 258.215 73.5738C252.342 78.8967 256.796 87.0623 250.671 92.6918Z" fill="#092540"/>
<path d="M267.958 78.8688L267.624 78.5623C265.898 77.0852 264.117 75.3574 263.671 73.1557C261.75 63.7082 253.093 60.3082 252.703 68.9475C252.592 71.1213 244.631 71.0098 245.577 73.3229C248.055 79.3148 248.11 77.6984 244.631 79.9C244.241 79.9279 243.851 80.0115 243.462 80.1787C241.68 81.0148 241.04 83.4393 242.042 85.6131C242.654 86.923 243.74 87.8147 244.881 88.1492V97.5967C244.881 101.136 242.738 104.341 239.453 105.679L236.252 106.989C236.252 106.989 251.117 116.715 266.204 106.041L264.2 105.149C260.665 103.561 258.326 100.077 258.215 96.1754L258.187 94.3361C259.189 94.4197 260.192 94.3639 261.082 94.0852C265.314 92.859 266.705 87.982 265.982 81.9344L267.708 81.0148C268.515 80.5689 268.654 79.4541 267.958 78.8688Z" fill="white"/>
<path d="M250.978 111.615C242.404 111.615 236.029 107.574 235.946 107.49C235.751 107.351 235.639 107.128 235.667 106.905C235.695 106.682 235.834 106.487 236.057 106.403L239.258 105.093C242.32 103.839 244.297 100.885 244.297 97.5967V88.5951C243.1 88.1213 242.125 87.1459 241.513 85.8639C240.372 83.3836 241.123 80.5967 243.211 79.6213C243.601 79.4541 243.99 79.3426 244.436 79.2869C245.02 78.9246 245.494 78.6738 245.856 78.4787C246.301 78.2557 246.719 78.0328 246.719 77.9213C246.746 77.6426 246.412 76.8344 245.911 75.7475C245.661 75.1623 245.355 74.4377 244.993 73.5738C244.826 73.1557 244.826 72.7377 245.02 72.3754C245.494 71.4 247.053 70.9541 248.834 70.4525C250.115 70.0902 252.063 69.5328 252.091 68.9475C252.314 64.182 254.791 63.4574 255.877 63.3738C258.939 63.1229 263.003 66.7738 264.284 73.0443C264.701 75.1066 266.455 76.7508 268.042 78.1164L268.376 78.423C268.849 78.841 269.099 79.4541 269.016 80.0951C268.96 80.7361 268.57 81.2656 268.014 81.5721L266.678 82.2967C267.374 88.9852 265.425 93.5 261.277 94.6984C260.526 94.9213 259.691 95.0328 258.828 95.0049V96.2033C258.939 99.8262 261.138 103.115 264.451 104.592L266.455 105.484C266.65 105.567 266.789 105.762 266.817 105.985C266.845 106.208 266.733 106.431 266.566 106.543C261.138 110.361 255.71 111.615 250.978 111.615ZM237.699 107.072C241.235 108.939 253.01 113.928 264.98 106.152L263.977 105.707C260.247 104.034 257.742 100.3 257.603 96.2033L257.575 94.3361C257.575 94.1689 257.658 94.0016 257.77 93.8623C257.909 93.7508 258.076 93.6951 258.243 93.6951C259.217 93.7787 260.108 93.6951 260.915 93.4721C264.478 92.441 266.121 88.2328 265.369 81.9902C265.341 81.7394 265.481 81.4885 265.703 81.3771L267.429 80.4574C267.624 80.3459 267.763 80.1508 267.791 79.9279C267.819 79.7049 267.735 79.482 267.568 79.3426L267.234 79.0361C265.481 77.5312 263.588 75.7197 263.087 73.2672C261.973 67.8328 258.521 64.4049 255.988 64.6C254.429 64.7115 253.483 66.3279 253.344 68.9754C253.288 70.4803 251.284 71.0377 249.168 71.623C247.999 71.9574 246.384 72.4033 246.134 72.8771C246.134 72.9049 246.106 72.9607 246.162 73.0721C246.524 73.9361 246.83 74.6328 247.08 75.218C248.25 77.8934 248.5 78.4787 246.468 79.5656C246.078 79.7885 245.577 80.0393 244.965 80.4295C244.881 80.4853 244.77 80.5131 244.659 80.5131C244.325 80.5131 244.018 80.5967 243.74 80.7361C242.265 81.4328 241.764 83.4951 242.626 85.3344C243.128 86.4213 244.046 87.2574 245.076 87.5361C245.355 87.6197 245.522 87.8426 245.522 88.1213V97.5689C245.522 101.387 243.239 104.787 239.731 106.208L237.699 107.072Z" fill="#092540"/>
<path d="M258.187 94.9213C258.16 94.9213 258.132 94.9213 258.104 94.9213C252.008 93.9738 249.28 89.3476 249.168 89.1525C249.001 88.8459 249.113 88.4836 249.391 88.3164C249.697 88.1492 250.059 88.2607 250.226 88.5394C250.254 88.5951 252.787 92.859 258.271 93.723C258.605 93.7787 258.855 94.0853 258.8 94.4197C258.772 94.6984 258.494 94.9213 258.187 94.9213Z" fill="#092540"/>
<path d="M56.6481 176.744C55.8687 176.744 55.0892 176.577 54.3376 176.271C52.8901 175.657 51.7766 174.515 51.1921 173.066C49.9672 170.056 51.4426 166.628 54.449 165.402C57.4554 164.175 60.8793 165.652 62.1041 168.662C63.329 171.672 61.8536 175.1 58.8472 176.326C58.1235 176.605 57.3997 176.744 56.6481 176.744ZM56.6481 166.21C56.0635 166.21 55.479 166.321 54.9222 166.544C52.5561 167.492 51.4148 170.223 52.3612 172.592C52.8345 173.734 53.6974 174.654 54.8387 175.128C55.98 175.602 57.2327 175.63 58.374 175.156C60.7401 174.208 61.9093 171.477 60.935 169.108C60.2112 167.325 58.4575 166.21 56.6481 166.21Z" fill="#092540"/>
<path d="M489.874 189.787C489.707 189.787 489.568 189.731 489.456 189.62C489.206 189.369 489.206 188.979 489.428 188.756L492.323 185.718C492.546 185.467 492.964 185.467 493.186 185.69C493.437 185.941 493.437 186.331 493.214 186.554L490.319 189.592C490.208 189.731 490.041 189.787 489.874 189.787Z" fill="#092540"/>
<path d="M479.713 200.433C479.546 200.433 479.407 200.377 479.296 200.266C479.045 200.015 479.045 199.625 479.268 199.402L482.163 196.364C482.414 196.113 482.803 196.113 483.026 196.336C483.277 196.587 483.277 196.977 483.054 197.2L480.159 200.238C480.047 200.377 479.88 200.433 479.713 200.433Z" fill="#092540"/>
<path d="M482.553 189.954C482.386 189.954 482.247 189.898 482.107 189.787L479.157 186.889C478.906 186.638 478.906 186.248 479.157 186.025C479.407 185.774 479.797 185.774 480.047 186.025L482.998 188.923C483.249 189.174 483.249 189.564 482.998 189.787C482.887 189.898 482.72 189.954 482.553 189.954Z" fill="#092540"/>
<path d="M492.88 200.154C492.713 200.154 492.574 200.098 492.435 199.987L489.484 197.089C489.234 196.838 489.234 196.448 489.484 196.225C489.735 195.974 490.124 195.974 490.375 196.225L493.326 199.123C493.576 199.374 493.576 199.764 493.326 199.987C493.214 200.098 493.047 200.154 492.88 200.154Z" fill="#092540"/>
<path d="M279.371 12.318C279.204 12.318 279.065 12.2623 278.954 12.1508C278.703 11.9 278.703 11.5098 278.926 11.2869L281.821 8.24919C282.071 7.99837 282.461 7.99837 282.684 8.22132C282.934 8.47214 282.934 8.8623 282.712 9.08525L279.817 12.123C279.677 12.2623 279.538 12.318 279.371 12.318Z" fill="#092540"/>
<path d="M269.183 22.9639C269.016 22.9639 268.877 22.9082 268.765 22.7967C268.515 22.5459 268.515 22.1557 268.737 21.9328L271.633 18.8951C271.883 18.6443 272.273 18.6443 272.495 18.8672C272.746 19.118 272.746 19.5082 272.523 19.7312L269.628 22.7689C269.517 22.9082 269.35 22.9639 269.183 22.9639Z" fill="#092540"/>
<path d="M272.05 12.4852C271.883 12.4852 271.744 12.4295 271.605 12.318L268.654 9.41966C268.403 9.16884 268.403 8.77868 268.654 8.55573C268.904 8.30491 269.294 8.30491 269.545 8.55573L272.468 11.4262C272.718 11.677 272.718 12.0672 272.468 12.2902C272.356 12.4295 272.217 12.4852 272.05 12.4852Z" fill="#092540"/>
<path d="M282.378 22.6574C282.211 22.6574 282.071 22.6016 281.932 22.4902L278.981 19.5918C278.731 19.341 278.731 18.9508 278.981 18.7279C279.232 18.4771 279.622 18.4771 279.844 18.7279L282.795 21.6262C283.046 21.8771 283.046 22.2672 282.795 22.4902C282.684 22.6016 282.517 22.6574 282.378 22.6574Z" fill="#092540"/>
<path d="M189.987 402.287L180.578 498.797L173.841 498.518L177.182 397.048L189.987 402.287Z" fill="white"/>
<path d="M180.578 499.41C180.55 499.41 180.55 499.41 180.578 499.41L173.841 499.131C173.507 499.103 173.229 498.825 173.257 498.49L176.597 397.02C176.597 396.825 176.709 396.63 176.876 396.518C177.043 396.407 177.265 396.379 177.46 396.462L190.265 401.702C190.516 401.813 190.683 402.064 190.655 402.343L181.19 498.852C181.163 499.159 180.884 499.41 180.578 499.41ZM174.482 497.905L179.993 498.128L189.319 402.649L177.766 397.939L174.482 497.905Z" fill="#092540"/>
<path d="M63.6908 398.803L72.877 499.02L79.8362 498.49L76.4958 393.397L63.6908 398.803Z" fill="white"/>
<path d="M72.877 499.661C72.5708 499.661 72.2924 499.41 72.2646 499.103L63.0784 398.887C63.0506 398.608 63.2176 398.357 63.4403 398.246L76.2453 392.839C76.4401 392.756 76.6628 392.784 76.8298 392.895C76.9969 393.007 77.1082 393.202 77.1082 393.397L80.4486 498.518C80.4486 498.852 80.1981 499.131 79.8641 499.159L72.9048 499.689C72.9327 499.633 72.9048 499.661 72.877 499.661ZM64.3589 399.193L73.4616 498.351L79.196 497.905L75.9112 394.289L64.3589 399.193Z" fill="#092540"/>
<path d="M31.7341 375.226L34.4342 480.459L39.8624 479.289L44.8174 370.21L31.7341 375.226Z" fill="white"/>
<path d="M34.4342 481.072C34.2951 481.072 34.1559 481.016 34.0445 480.933C33.9053 480.821 33.8218 480.654 33.794 480.459L31.0938 375.226C31.0938 374.975 31.233 374.725 31.4835 374.641L44.5947 369.625C44.7896 369.541 45.0123 369.569 45.1793 369.708C45.3463 369.82 45.4577 370.043 45.4298 370.238L40.447 479.316C40.447 479.595 40.2243 479.846 39.9459 479.902L34.5178 481.072C34.5178 481.072 34.4621 481.072 34.4342 481.072ZM32.3465 375.644L35.0188 479.707L39.25 478.787L44.1493 371.129L32.3465 375.644Z" fill="#092540"/>
<path d="M137.709 372.857L140.409 478.118L146.032 478.146L150.793 367.869L137.709 372.857Z" fill="white"/>
<path d="M110.457 290.672V315.169C110.457 339.108 129.33 358.533 152.602 358.533C175.874 358.533 194.747 377.957 194.747 401.897C194.747 404.043 193.021 405.771 190.906 405.771H79.3352C44.4555 405.771 16.1732 376.675 16.1732 340.752V288.498C16.1732 274.229 27.4194 262.636 41.31 262.636H83.2324C98.2643 262.636 110.457 275.205 110.457 290.672Z" fill="white"/>
<path d="M190.906 406.384H79.3352C44.1493 406.384 15.533 376.954 15.533 340.752V288.498C15.533 273.895 27.0853 262.023 41.2821 262.023H83.2324C98.5983 262.023 111.097 274.87 111.097 290.672V315.169C111.097 338.746 129.72 357.92 152.63 357.92C176.208 357.92 195.387 377.651 195.387 401.897C195.359 404.349 193.355 406.384 190.906 406.384ZM41.31 263.249C27.8091 263.249 16.8135 274.564 16.8135 288.47V340.725C16.8135 376.229 44.8731 405.102 79.363 405.102H190.906C192.687 405.102 194.135 403.652 194.135 401.869C194.135 378.292 175.512 359.118 152.602 359.118C129.024 359.118 109.844 339.387 109.844 315.141V290.672C109.844 275.567 97.9024 263.249 83.2324 263.249H41.31Z" fill="#092540"/>
<path d="M5.37252 244.995C3.67447 244.298 2.14344 243.044 1.19698 241.372C-0.194864 238.864 -0.946461 234.851 2.19911 229.138C9.32536 216.207 21.2117 222.31 25.7491 220.805C35.9374 217.433 33.5435 211.943 37.6633 206.564C40.7532 202.551 51.4704 194.998 67.6994 209.072C67.6994 209.072 74.9926 219.049 83.2602 215.259C93.4207 210.605 113.825 221.139 107.395 236.83C105.53 241.344 102.189 244.828 98.0973 246.723C97.3456 247.057 96.5384 247.392 95.6754 247.698C93.1423 248.59 91.1659 250.848 90.5256 253.774C88.4379 263.333 80.5878 281.754 51.4148 263.193C49.2156 261.8 46.599 261.605 44.3163 262.664C41.5327 263.974 38.4984 269.018 24.9975 266.872C16.3403 265.507 13.5844 255.418 11.3018 250.82C9.49238 247.169 6.87571 245.608 5.37252 244.995Z" fill="#092540"/>
<path d="M155.441 315.448C143.972 319.043 121.981 309.066 118.223 292.344C115.245 279.079 110.596 272.362 108.814 270.133C107.952 268.656 106.838 267.29 105.335 265.98C94.6455 256.561 76.1339 259.626 68.1169 260.936C59.0421 262.441 51.4983 263.667 46.3763 269.436C45.0123 270.969 44.0658 272.585 43.3977 274.285C33.627 292.734 41.5327 311.769 46.432 320.575C47.2392 355.83 35.6034 350.311 38.749 365.946C43.2029 388.018 78.6671 379.769 91.5834 376.954C96.1208 375.979 119.838 383.002 125.628 364.692C129.024 353.99 122.594 349.057 116.915 330.887C145.977 348.974 167.578 318.123 167.578 318.123L169.805 307.31C169.805 307.31 163.932 312.8 155.441 315.448Z" fill="white"/>
<path d="M63.8857 381.441C57.01 381.441 50.3848 380.354 45.4577 377.149C41.5327 374.585 39.083 370.851 38.1087 366.057C36.689 359.034 38.1644 356.136 40.1965 352.151C42.7296 347.19 46.2093 340.362 45.7639 320.715C40.447 311.072 33.0702 292.344 42.7853 273.979C43.5091 272.167 44.5112 270.551 45.8752 269.018C51.1364 263.082 58.9307 261.8 67.9777 260.323C75.9948 259.013 94.7847 255.92 105.697 265.507C107.2 266.816 108.369 268.21 109.288 269.77C111.181 272.111 115.829 278.939 118.808 292.205C120.422 299.395 125.851 306.139 133.729 310.682C141.161 314.974 149.596 316.618 155.246 314.834C163.486 312.243 169.304 306.892 169.36 306.836C169.555 306.641 169.861 306.613 170.084 306.752C170.306 306.892 170.445 307.143 170.39 307.421L168.163 318.234C168.135 318.318 168.107 318.402 168.051 318.457C167.996 318.541 162.484 326.344 153.437 331.807C145.309 336.711 132.643 340.669 117.973 332.252C119.782 337.77 121.647 342.062 123.178 345.546C126.352 352.848 128.467 357.669 126.185 364.859C121.48 379.769 105.307 378.403 96.6219 377.679C94.4506 377.484 92.5577 377.344 91.6669 377.539L90.8597 377.707C84.4572 379.128 73.9348 381.441 63.8857 381.441ZM43.8988 274.648C34.4621 292.539 41.7554 310.905 46.9609 320.269C47.0165 320.352 47.0444 320.464 47.0444 320.548C47.5176 340.641 43.9266 347.608 41.3378 352.736C39.3335 356.638 38.0252 359.229 39.3614 365.834C40.2522 370.293 42.5626 373.749 46.1814 376.118C57.8172 383.726 80.0033 378.849 90.637 376.508L91.4442 376.341C92.502 376.118 94.2836 376.257 96.7611 376.48C105.697 377.233 120.617 378.459 125.043 364.525C127.187 357.752 125.266 353.377 122.093 346.075C120.395 342.23 118.307 337.408 116.33 331.082C116.247 330.831 116.33 330.552 116.553 330.413C116.748 330.246 117.026 330.246 117.249 330.385C129.08 337.743 141.05 337.882 152.797 330.803C161.064 325.815 166.326 318.82 166.994 317.9L168.831 308.982C166.604 310.766 161.816 314.138 155.636 316.089C149.679 317.956 140.855 316.284 133.144 311.825C124.988 307.115 119.337 300.092 117.639 292.539C114.716 279.469 110.151 272.836 108.341 270.579C108.313 270.551 108.313 270.523 108.286 270.495C107.423 269.046 106.337 267.708 104.917 266.482C94.4506 257.23 76.0504 260.267 68.2004 261.549C59.0421 263.054 51.8045 264.252 46.8217 269.854C45.5412 271.303 44.5947 272.808 43.9545 274.508C43.9545 274.564 43.9266 274.592 43.8988 274.648Z" fill="#092540"/>
<path d="M104.695 312.577C104.695 312.577 125.628 304.941 132.17 290.979L145.643 278.41C145.643 278.41 145.448 284.485 141.439 287.021C141.439 287.021 144.863 293.933 139.797 298.726C139.797 298.726 135.983 301.764 133.729 301.82C133.729 301.82 127.103 323.641 109.176 330.134C109.204 330.107 104.166 322.443 104.695 312.577Z" fill="white"/>
<path d="M109.204 330.72C109.009 330.72 108.814 330.608 108.675 330.441C108.453 330.134 103.525 322.498 104.082 312.521C104.082 312.271 104.249 312.048 104.5 311.964C104.695 311.88 125.266 304.244 131.613 290.672C131.641 290.589 131.696 290.533 131.752 290.477L145.225 277.908C145.42 277.741 145.671 277.685 145.893 277.797C146.116 277.908 146.255 278.131 146.255 278.382C146.255 278.633 146.032 284.374 142.219 287.189C142.915 288.916 144.78 294.852 140.242 299.116C140.047 299.256 136.651 301.959 134.202 302.321C133.172 305.359 126.046 324.616 109.399 330.636C109.343 330.72 109.288 330.72 109.204 330.72ZM105.307 312.995C105.001 321.077 108.48 327.654 109.483 329.326C126.547 322.805 133.116 301.792 133.172 301.569C133.255 301.318 133.478 301.123 133.756 301.123C135.454 301.095 138.433 298.977 139.463 298.169C144.084 293.793 141.05 287.495 140.938 287.216C140.799 286.938 140.883 286.575 141.161 286.408C143.611 284.848 144.529 281.81 144.863 279.943L132.726 291.285C126.491 304.411 108.286 311.852 105.307 312.995Z" fill="#092540"/>
<path d="M85.8212 337.046C68.3674 337.046 58.374 328.407 58.2348 328.267C57.9843 328.044 57.9564 327.654 58.1791 327.403C58.4018 327.152 58.7916 327.125 59.0421 327.348C59.2091 327.515 77.0247 342.843 106.699 331.834C107.005 331.723 107.367 331.89 107.506 332.197C107.617 332.531 107.45 332.866 107.144 333.005C99.1829 335.959 92.0288 337.046 85.8212 337.046Z" fill="#092540"/>
<path d="M96.5384 313.413C81.3394 313.413 72.4873 304.746 67.6437 297.11C61.9371 288.136 60.4339 278.577 60.4061 278.493C60.3504 278.159 60.5731 277.825 60.935 277.797C61.269 277.741 61.6031 277.964 61.6309 278.326C61.6587 278.41 63.1341 287.746 68.7015 296.497C76.1339 308.174 86.9068 313.385 100.742 311.964C101.076 311.936 101.382 312.187 101.41 312.521C101.438 312.856 101.187 313.162 100.853 313.19C99.3778 313.33 97.9302 313.413 96.5384 313.413Z" fill="#092540"/>
<path d="M108.313 302.405C108.286 302.405 108.258 302.405 108.23 302.405C107.896 302.349 107.645 302.043 107.701 301.708C110.429 283.008 101.883 272.418 101.8 272.307C101.577 272.056 101.605 271.638 101.883 271.443C102.134 271.22 102.523 271.248 102.746 271.526C103.108 271.972 111.737 282.618 108.926 301.903C108.898 302.182 108.62 302.405 108.313 302.405Z" fill="#092540"/>
<path d="M104.472 249.816C103.887 245.915 104.834 235.575 104.639 235.826C102.969 238.279 97.4848 235.38 92.5299 235.185C87.5749 234.99 89.2451 242.431 89.2451 242.431C89.2451 242.431 87.7976 237.387 84.7077 240.536C82.9261 242.375 84.9025 244.744 86.7398 246.277C86.2387 246.862 77.3309 256.449 71.8749 262.162L83.9839 271.359L90.0524 265.702L88.8276 263.723C87.9368 262.329 87.8811 260.546 88.6327 259.069L91.5834 254.052C92.2515 254.889 93.1144 255.808 93.9217 256.366C95.5084 257.48 97.457 257.285 98.8488 255.975C100.77 254.164 102.078 252.102 102.69 250.123L104.472 249.816Z" fill="white"/>
<path d="M83.9839 272C83.8448 272 83.7334 271.972 83.6221 271.861L71.513 262.664C71.3738 262.552 71.2903 262.385 71.2625 262.218C71.2346 262.051 71.3182 261.856 71.4295 261.744C76.4123 256.533 83.9561 248.395 85.849 246.333C84.6799 245.246 83.455 243.797 83.3994 242.292C83.3715 241.456 83.6499 240.731 84.2901 240.09C85.2644 239.087 86.2666 238.697 87.213 238.92C87.6584 239.031 88.0481 239.282 88.3822 239.616C88.41 238.307 88.6605 236.802 89.4956 235.798C90.2194 234.934 91.2494 234.516 92.5577 234.572C94.4228 234.656 96.3714 235.102 98.0973 235.492C100.881 236.133 103.303 236.69 104.11 235.492C104.277 235.269 104.555 235.157 104.834 235.241C105.307 235.408 105.307 235.408 105.168 238.139C105.001 241.261 104.667 247.085 105.056 249.733C105.112 250.067 104.889 250.374 104.555 250.43L103.136 250.68C102.44 252.687 101.104 254.666 99.2386 256.449C97.624 257.982 95.3414 258.177 93.532 256.895C92.9753 256.505 92.3629 255.92 91.6391 255.139L89.1059 259.403C88.4657 260.657 88.5492 262.19 89.3008 263.416L90.5256 265.395C90.6926 265.646 90.637 265.98 90.4143 266.175L84.3458 271.833C84.2901 271.944 84.151 272 83.9839 272ZM72.8213 262.107L83.9561 270.551L89.2451 265.59L88.2708 264.057C87.2687 262.469 87.1852 260.462 88.0481 258.79L91.0267 253.718C91.138 253.551 91.3051 253.439 91.4999 253.411C91.6948 253.384 91.8896 253.467 92.0288 253.634C92.8918 254.666 93.6433 255.418 94.2279 255.836C95.5641 256.756 97.1786 256.644 98.3756 255.502C100.213 253.746 101.466 251.823 102.05 249.9C102.106 249.677 102.301 249.51 102.551 249.482L103.748 249.287C103.442 246.333 103.748 241.01 103.915 238.028C103.943 237.693 103.943 237.387 103.971 237.108C102.495 237.749 100.269 237.248 97.8189 236.662C96.0652 236.272 94.2558 235.854 92.502 235.77C91.5834 235.743 90.9153 235.993 90.4421 236.551C89.2451 238 89.607 241.149 89.8575 242.236C89.941 242.57 89.7183 242.877 89.4121 242.961C89.0781 243.044 88.7441 242.849 88.6605 242.543C88.4935 241.985 87.8254 240.341 86.879 240.09C86.4058 239.979 85.8212 240.257 85.1531 240.926C84.7634 241.316 84.5964 241.734 84.6242 242.208C84.6799 243.184 85.5706 244.466 87.1295 245.775C87.2687 245.887 87.3244 246.026 87.3522 246.193C87.3522 246.361 87.2965 246.528 87.213 246.639C86.7676 247.225 78.4166 256.226 72.8213 262.107Z" fill="#092540"/>
<path d="M90.6091 252.743L91.5556 254.052L90.6091 252.743Z" fill="white"/>
<path d="M91.5556 254.693C91.3607 254.693 91.1659 254.61 91.0545 254.443L90.1081 253.133C89.9132 252.854 89.9689 252.464 90.2473 252.269C90.5256 252.074 90.9153 252.13 91.1102 252.408L92.0566 253.718C92.2515 253.997 92.1958 254.387 91.9175 254.582C91.8061 254.666 91.6948 254.693 91.5556 254.693Z" fill="#092540"/>
<path d="M195.777 449.079C195.666 449.58 201.456 476.111 201.456 476.111L188.15 473.882L184.141 451.448L195.777 449.079Z" fill="white"/>
<path d="M201.456 476.752C201.428 476.752 201.4 476.752 201.344 476.752L188.038 474.523C187.788 474.467 187.565 474.272 187.537 474.021L183.529 451.587C183.473 451.252 183.696 450.946 184.002 450.862L195.666 448.493C195.888 448.438 196.083 448.521 196.222 448.661C196.334 448.772 196.417 448.939 196.389 449.134C196.473 450.249 199.813 465.772 202.04 476C202.096 476.195 202.012 476.418 201.873 476.557C201.79 476.669 201.623 476.752 201.456 476.752ZM188.679 473.352L200.648 475.359C196.696 457.216 195.582 451.615 195.276 449.831L184.837 451.949L188.679 473.352Z" fill="#092540"/>
<path d="M194.385 467.416C195.192 466.72 196.362 466.051 197.837 465.995C200.064 465.911 202.096 467.305 203.015 469.367C205.325 474.495 211.421 488.82 213.147 500.525C213.76 504.649 210.642 508.021 205.77 505.318C197.809 500.887 186.758 490.687 180.996 475.638C180.327 473.91 180.578 471.959 181.664 470.454C182.554 469.228 183.751 467.751 185.171 466.497C186.507 465.298 188.539 465.271 189.903 466.413L191.156 467.444C192.103 468.225 193.467 468.197 194.385 467.416Z" fill="white"/>
<path d="M209.083 506.907C208.109 506.907 206.912 506.628 205.492 505.848C197.169 501.193 186.201 490.882 180.439 475.833C179.687 473.882 179.966 471.736 181.19 470.064C182.36 468.475 183.557 467.11 184.781 466.023C186.34 464.602 188.679 464.574 190.321 465.939L191.574 466.97C192.27 467.556 193.299 467.528 193.995 466.943C195.137 465.967 196.473 465.438 197.837 465.382C200.231 465.27 202.569 466.775 203.627 469.116C206.104 474.634 212.089 488.764 213.787 500.441C214.149 502.838 213.342 505.011 211.728 506.126C211.171 506.489 210.308 506.907 209.083 506.907ZM187.593 466.19C186.869 466.19 186.173 466.441 185.589 466.943C184.447 467.974 183.306 469.256 182.165 470.789C181.19 472.098 180.996 473.826 181.58 475.387C187.231 490.13 197.948 500.218 206.077 504.761C207.997 505.82 209.751 505.959 210.976 505.095C212.201 504.231 212.813 502.531 212.507 500.608C210.809 489.098 204.907 475.108 202.43 469.618C201.595 467.751 199.758 466.552 197.837 466.636C196.723 466.692 195.693 467.11 194.747 467.918C193.578 468.893 191.908 468.893 190.738 467.946L189.486 466.915C188.957 466.413 188.261 466.19 187.593 466.19Z" fill="#092540"/>
<path d="M210.141 502.225C209.083 502.225 197.865 501.556 184.253 474.634C184.085 474.328 184.225 473.966 184.531 473.798C184.837 473.631 185.199 473.77 185.366 474.077C199.006 501.082 210.057 500.998 210.169 500.998C210.531 500.998 210.809 501.249 210.809 501.584C210.809 501.918 210.558 502.225 210.224 502.225C210.197 502.225 210.169 502.225 210.141 502.225Z" fill="#092540"/>
<path d="M201.595 487.398C201.344 487.398 201.122 487.259 201.01 487.008C200.871 486.702 201.038 486.339 201.372 486.2L207.691 483.72C207.997 483.58 208.359 483.748 208.498 484.082C208.638 484.389 208.471 484.751 208.137 484.89L201.818 487.37C201.762 487.398 201.678 487.398 201.595 487.398Z" fill="#092540"/>
<path d="M199.396 482.577C199.145 482.577 198.923 482.438 198.811 482.187C198.7 481.88 198.839 481.518 199.173 481.379L206.578 478.48C206.884 478.369 207.246 478.508 207.385 478.843C207.496 479.149 207.357 479.511 207.023 479.651L199.618 482.549C199.535 482.549 199.479 482.577 199.396 482.577Z" fill="#092540"/>
<path d="M138.489 451.503C138.182 451.893 132.281 478.425 132.281 478.425L121.146 470.789L126.936 448.744L138.489 451.503Z" fill="white"/>
<path d="M132.281 479.038C132.17 479.038 132.03 479.01 131.919 478.926L120.784 471.29C120.562 471.151 120.478 470.872 120.534 470.621L126.324 448.577C126.407 448.243 126.741 448.048 127.075 448.131L138.656 450.89C138.85 450.946 139.018 451.085 139.101 451.28C139.157 451.448 139.157 451.615 139.073 451.782C138.683 452.813 135.204 468.308 132.921 478.564C132.866 478.759 132.726 478.926 132.532 479.01C132.42 479.038 132.337 479.038 132.281 479.038ZM121.842 470.51L131.863 477.366C135.9 459.223 137.236 453.677 137.709 451.921L127.354 449.441L121.842 470.51Z" fill="#092540"/>
<path d="M129.525 467.528C130.555 467.249 131.891 467.138 133.255 467.695C135.315 468.559 136.568 470.677 136.568 472.934C136.512 478.564 136.011 494.115 132.671 505.457C131.474 509.47 127.242 511.198 123.986 506.711C118.641 499.326 112.879 485.448 113.964 469.339C114.076 467.5 115.133 465.828 116.748 464.936C118.056 464.211 119.782 463.375 121.592 462.818C123.317 462.289 125.155 463.125 125.934 464.741L126.63 466.19C127.103 467.305 128.328 467.862 129.525 467.528Z" fill="white"/>
<path d="M128.245 510C127.02 510 125.21 509.498 123.457 507.074C117.861 499.354 112.238 485.364 113.324 469.311C113.463 467.221 114.632 465.382 116.414 464.407C118.14 463.459 119.81 462.707 121.369 462.233C123.373 461.62 125.517 462.567 126.435 464.49L127.131 465.939C127.521 466.748 128.439 467.193 129.33 466.943C130.778 466.552 132.197 466.608 133.478 467.138C135.705 468.057 137.18 470.398 137.152 472.962C137.097 479.038 136.568 494.366 133.227 505.652C132.532 507.966 130.917 509.61 128.968 509.944C128.774 509.972 128.523 510 128.245 510ZM122.594 463.292C122.315 463.292 122.009 463.348 121.703 463.431C120.228 463.877 118.641 464.574 116.999 465.493C115.579 466.274 114.66 467.751 114.549 469.395C113.491 485.141 118.975 498.825 124.459 506.349C125.739 508.133 127.27 508.969 128.774 508.718C130.249 508.467 131.502 507.157 132.058 505.29C135.343 494.143 135.872 478.954 135.928 472.934C135.955 470.872 134.786 469.005 133.005 468.28C131.975 467.862 130.861 467.807 129.664 468.141C128.217 468.531 126.658 467.834 126.018 466.469L125.322 465.02C124.793 463.933 123.735 463.292 122.594 463.292Z" fill="#092540"/>
<path d="M129.469 505.848C129.386 505.848 129.302 505.82 129.219 505.792C128.774 505.597 118.335 500.859 117.249 469.813C117.249 469.479 117.5 469.172 117.834 469.172C118.168 469.172 118.474 469.423 118.474 469.757C119.532 499.995 129.581 504.593 129.692 504.621C129.998 504.761 130.165 505.123 130.026 505.43C129.943 505.708 129.72 505.848 129.469 505.848Z" fill="#092540"/>
<path d="M134.703 489.182H134.675L127.911 488.792C127.577 488.764 127.298 488.485 127.326 488.123C127.354 487.789 127.632 487.51 127.994 487.538L134.758 487.928C135.093 487.956 135.371 488.234 135.343 488.597C135.315 488.903 135.037 489.182 134.703 489.182Z" fill="#092540"/>
<path d="M135.9 483.943H135.872L127.938 483.441C127.604 483.413 127.326 483.134 127.354 482.772C127.382 482.438 127.688 482.159 128.022 482.187L135.955 482.689C136.289 482.716 136.568 482.995 136.54 483.357C136.484 483.692 136.206 483.943 135.9 483.943Z" fill="#092540"/>
<path d="M76.1896 346.939C76.1896 346.939 157.279 343.428 166.158 351.649C178.184 362.852 198.839 455.934 198.839 455.934L178.88 461.536C178.88 461.536 148.816 385.148 141.384 385.148C133.923 385.148 63.7187 382.639 63.7187 382.639L76.1896 346.939Z" fill="#092540"/>
<path d="M70.8171 344.905C64.4146 344.57 58.6802 348.862 57.177 355.105C54.8387 364.775 52.8066 378.013 58.0399 381.525C66.558 387.266 127.911 386.764 125.767 386.067C123.652 385.343 120.283 437.541 120.283 457.607L139.602 458.359C139.602 458.359 170.39 377.651 167.077 368.621C161.148 352.485 115.44 348.807 100.825 346.661C98.8489 346.382 82.1745 345.49 70.8171 344.905Z" fill="#092540"/>
<path d="M156.861 413.044C156.805 413.044 156.722 413.044 156.666 413.016C156.332 412.905 156.165 412.57 156.276 412.236C156.972 410.062 157.668 407.916 158.336 405.826C163.737 389.105 168.413 374.669 166.493 368.816C162.401 356.415 131.696 351.677 121.619 350.089C121.285 350.033 121.063 349.726 121.091 349.392C121.146 349.057 121.452 348.807 121.786 348.862C139.602 351.621 163.765 356.666 167.662 368.426C169.722 374.641 165.212 388.575 159.533 406.216C158.865 408.307 158.169 410.452 157.473 412.598C157.39 412.877 157.139 413.044 156.861 413.044Z" fill="white"/>
<path d="M334.516 387.962L343.925 484.472L350.662 484.193L347.321 382.723L334.516 387.962Z" fill="white"/>
<path d="M343.925 485.085C343.619 485.085 343.341 484.834 343.313 484.528L333.904 388.018C333.876 387.739 334.043 387.489 334.294 387.377L347.098 382.138C347.293 382.054 347.488 382.082 347.683 382.193C347.85 382.305 347.961 382.5 347.961 382.695L351.302 484.166C351.302 484.5 351.051 484.779 350.717 484.807L343.925 485.085C343.953 485.085 343.953 485.085 343.925 485.085ZM335.184 388.352L344.51 483.831L350.021 483.608L346.737 383.67L335.184 388.352Z" fill="#092540"/>
<path d="M460.812 384.479L451.598 484.695L444.667 484.193L448.007 379.072L460.812 384.479Z" fill="white"/>
<path d="M451.598 485.336C451.57 485.336 451.57 485.336 451.543 485.336L444.611 484.807C444.277 484.779 444.027 484.5 444.027 484.166L447.367 379.044C447.367 378.849 447.478 378.654 447.645 378.543C447.812 378.431 448.035 378.403 448.23 378.487L461.035 383.893C461.285 384.005 461.425 384.256 461.397 384.534L452.211 484.751C452.211 485.085 451.932 485.336 451.598 485.336ZM445.307 483.608L451.042 484.054L460.144 384.869L448.592 379.992L445.307 483.608Z" fill="#092540"/>
<path d="M492.769 360.902L490.069 466.134L484.641 464.964L479.686 355.885L492.769 360.902Z" fill="white"/>
<path d="M490.069 466.748C490.013 466.748 489.985 466.748 489.93 466.72L484.501 465.549C484.223 465.493 484.028 465.243 484 464.964L479.018 355.885C479.018 355.69 479.101 355.467 479.268 355.356C479.435 355.244 479.658 355.216 479.853 355.272L492.964 360.289C493.214 360.372 493.381 360.623 493.354 360.874L490.653 466.107C490.653 466.302 490.57 466.469 490.403 466.58C490.347 466.72 490.208 466.748 490.069 466.748ZM485.253 464.462L489.484 465.382L492.157 361.32L480.354 356.805L485.253 464.462Z" fill="#092540"/>
<path d="M386.794 358.533L384.094 463.793L378.471 463.821L373.711 353.544L386.794 358.533Z" fill="white"/>
<path d="M378.471 464.434C378.137 464.434 377.858 464.184 377.858 463.849L373.098 353.572C373.098 353.377 373.182 353.154 373.349 353.043C373.516 352.931 373.738 352.903 373.933 352.959L387.044 357.975C387.295 358.059 387.462 358.31 387.434 358.561L384.734 463.793C384.734 464.128 384.456 464.407 384.122 464.407L378.471 464.434ZM374.379 354.464L379.083 463.208L383.509 463.18L386.181 358.979L374.379 354.464Z" fill="#092540"/>
<path d="M414.046 276.348V300.844C414.046 324.784 395.173 344.208 371.901 344.208C348.629 344.208 329.756 363.633 329.756 387.572C329.756 389.718 331.482 391.446 333.598 391.446H445.14C480.02 391.446 508.302 362.351 508.302 326.428V274.174C508.302 259.905 497.056 248.311 483.165 248.311H441.243C426.239 248.311 414.046 260.88 414.046 276.348Z" fill="white"/>
<path d="M445.14 392.059H333.598C331.12 392.059 329.116 390.052 329.116 387.572C329.116 363.326 348.295 343.595 371.873 343.595C394.755 343.595 413.406 324.421 413.406 300.844V276.348C413.406 260.546 425.905 247.698 441.271 247.698H483.193C497.39 247.698 508.942 259.57 508.942 274.174V326.428C508.942 362.602 480.326 392.059 445.14 392.059ZM441.271 248.952C426.601 248.952 414.659 261.243 414.659 276.375V300.872C414.659 325.118 395.479 344.849 371.901 344.849C349.019 344.849 330.369 364.023 330.369 387.6C330.369 389.384 331.816 390.833 333.598 390.833H445.14C479.63 390.833 507.69 361.961 507.69 326.456V274.174C507.69 260.267 496.694 248.952 483.193 248.952H441.271Z" fill="#092540"/>
<path d="M406.085 277.518C406.085 277.518 400.016 332.866 359.18 336.489L406.085 337.157C406.085 337.157 423.455 301.875 424.151 288.136C424.847 274.397 406.085 277.518 406.085 277.518Z" fill="white"/>
<path d="M406.085 337.743C406.057 337.743 406.057 337.743 406.085 337.743L359.18 337.074C358.846 337.074 358.595 336.795 358.567 336.489C358.567 336.154 358.79 335.875 359.124 335.848C379.918 334.008 391.387 318.262 397.372 305.387C403.886 291.341 405.472 277.574 405.472 277.434C405.5 277.156 405.723 276.933 405.974 276.877C406.391 276.793 416.468 275.205 421.729 279.887C423.928 281.838 424.958 284.625 424.763 288.136C424.068 301.848 407.338 335.959 406.614 337.38C406.53 337.631 406.308 337.743 406.085 337.743ZM366 335.931L405.695 336.489C407.505 332.782 422.871 300.789 423.539 288.08C423.706 284.959 422.815 282.534 420.922 280.834C416.691 277.072 408.646 277.797 406.642 278.048C406.308 280.639 404.415 293.152 398.513 305.889C390.942 322.192 379.779 332.475 366 335.931Z" fill="#092540"/>
<path d="M464.18 242.348C456.247 240.48 452.962 240.452 424.151 241.511C417.108 241.762 408.757 250.625 407.922 257.62C410.149 264.336 420.477 297.528 402.466 323.474C399.905 327.152 396.425 331.193 391.665 335.067C394.338 337.241 398.513 340.056 404.108 341.728C413.406 344.487 418.083 341.505 425.543 341.728C445.335 342.313 452.6 364.413 465.405 361.654C468.829 360.902 473.339 358.254 477.598 349.28C479.992 341.867 482.135 333.144 483.332 323.279C486.561 296.552 481.272 274.313 476.568 260.351C475.148 255.948 473.506 244.549 464.18 242.348Z" fill="#092540"/>
<path d="M400.712 283.705C400.712 283.705 405.361 246.277 418.779 243.1L415.689 292.316L400.712 283.705Z" fill="#092540"/>
<path d="M468.913 273.728C475.037 276.32 482.247 279.385 488.593 282.116C488.593 282.2 488.593 282.284 488.593 282.339L468.941 273.839L468.913 273.728Z" fill="white"/>
<path d="M488.566 282.98C488.482 282.98 488.399 282.952 488.315 282.925L468.662 274.425C468.44 274.341 468.3 274.118 468.3 273.895V273.756C468.3 273.533 468.384 273.338 468.579 273.226C468.746 273.115 468.968 273.087 469.163 273.17C476.651 276.348 483.444 279.246 488.844 281.559C489.067 281.643 489.206 281.866 489.206 282.116V282.367C489.206 282.59 489.095 282.785 488.927 282.897C488.816 282.925 488.705 282.98 488.566 282.98Z" fill="#092540"/>
<path d="M492.017 290.561C492.017 290.561 490.709 268.321 488.788 259.738C484.752 241.679 461.397 241.484 461.397 241.484L465.489 287.467L492.017 290.561Z" fill="#092540"/>
<path d="M441.271 238.418L440.491 227.187C439.962 227.159 439.573 227.131 439.489 227.131C436.371 227.103 435.341 226.072 435.063 223.508C434.896 221.892 434.84 219.495 435.62 216.513C435.703 216.207 435.675 215.844 435.564 215.538L435.035 214.284C434.924 213.866 435.063 213.42 435.397 213.169L435.675 212.946C436.705 212.11 437.541 211.079 438.236 209.936C438.849 208.877 439.935 206.898 440.658 206.564C442.718 205.589 451.069 201.213 455.718 208.849C459.365 214.813 453.408 223.007 451.264 225.71C450.735 226.351 454.799 239.087 454.799 239.087L460.033 240.341C460.033 240.341 455.996 247.531 443.72 244.549C434.98 242.431 436.371 239.171 436.371 239.171L441.271 238.418Z" fill="white"/>
<path d="M449.316 245.887C447.618 245.887 445.697 245.664 443.526 245.134C439.378 244.131 436.845 242.738 435.954 240.954C435.397 239.839 435.731 239.003 435.759 238.92C435.843 238.725 436.037 238.585 436.232 238.557L440.603 237.916L439.879 227.8C439.656 227.772 439.489 227.772 439.433 227.772C436.093 227.744 434.729 226.602 434.423 223.592C434.172 221.167 434.367 218.798 435.007 216.374C435.063 216.179 435.035 215.984 434.98 215.816L434.451 214.562C434.451 214.534 434.423 214.507 434.423 214.479C434.256 213.838 434.479 213.141 434.98 212.723L435.258 212.5C436.177 211.748 436.984 210.772 437.68 209.657L437.958 209.184C438.877 207.623 439.628 206.397 440.352 206.034L440.575 205.923C447.757 202.439 453.018 203.331 456.219 208.543C459.921 214.59 454.438 222.672 451.793 225.989C451.793 227.075 453.491 233.067 455.245 238.585L460.144 239.784C460.339 239.839 460.478 239.951 460.562 240.146C460.645 240.313 460.617 240.536 460.534 240.703C460.367 240.87 457.444 245.887 449.316 245.887ZM436.872 239.7C436.872 239.895 436.928 240.146 437.095 240.452C437.513 241.233 438.96 242.738 443.832 243.936C453.185 246.193 457.555 242.348 458.947 240.703L454.605 239.644C454.382 239.589 454.215 239.449 454.159 239.226C450.012 226.184 450.513 225.543 450.735 225.264C453.185 222.226 458.474 214.59 455.161 209.128C450.93 202.216 443.553 205.784 441.132 206.982L440.909 207.093C440.463 207.316 439.489 208.961 439.044 209.741L438.765 210.215C438.014 211.469 437.123 212.528 436.065 213.392L435.787 213.615C435.648 213.726 435.592 213.893 435.62 214.061L436.121 215.259C436.288 215.677 436.344 216.179 436.204 216.625C435.592 218.91 435.425 221.139 435.675 223.397C435.898 225.487 436.483 226.434 439.489 226.462C439.601 226.462 439.99 226.49 440.547 226.518C440.853 226.546 441.104 226.797 441.132 227.103L441.911 238.334C441.939 238.669 441.716 238.948 441.382 239.003L436.872 239.7Z" fill="#092540"/>
<path d="M453.101 199.095C450.847 198.593 448.23 198.956 447.144 198.538C445.363 197.897 445.335 195.751 442.885 195.166C439.935 194.441 438.682 195.723 437.513 197.479C437.318 197.785 437.151 198.092 437.012 198.482C435.147 203.498 437.513 205.923 438.543 206.731C438.543 206.731 445.224 210.187 446.365 211.162C447.423 212.082 448.675 214.284 447.896 217.405C447.785 217.823 447.979 218.241 448.313 218.436C448.703 218.687 449.232 218.575 449.51 218.157C450.373 216.903 452.266 214.451 453.63 215.036C455.328 215.761 454.799 220.861 451.069 221.446C449.928 221.613 448.982 222.811 449.093 224.01C449.176 224.79 449.9 225.738 451.014 225.989C451.682 226.156 452.35 225.877 452.934 225.487C455.384 223.926 462.26 217.321 463.095 211.385C464.125 204.251 456.108 199.736 453.101 199.095Z" fill="#092540"/>
<path d="M439.628 227.689C439.294 227.689 439.016 227.438 439.016 227.103C439.016 226.769 439.266 226.462 439.6 226.462C439.628 226.462 442.022 226.351 443.637 224.957C443.887 224.734 444.277 224.762 444.5 225.041C444.723 225.292 444.695 225.682 444.416 225.905C442.496 227.577 439.768 227.689 439.628 227.689C439.656 227.689 439.656 227.689 439.628 227.689Z" fill="#092540"/>
<path d="M386.154 453.287C385.012 452.116 378.415 431.577 378.415 431.577L365.387 440.885L379.668 460.115L386.154 453.287Z" fill="white"/>
<path d="M379.696 460.728H379.668C379.473 460.728 379.306 460.616 379.194 460.477L364.914 441.248C364.803 441.108 364.775 440.941 364.803 440.774C364.831 440.607 364.914 440.467 365.053 440.356L378.081 431.048C378.248 430.936 378.443 430.908 378.638 430.964C378.833 431.02 378.972 431.187 379.027 431.354C381.533 439.157 385.792 451.866 386.627 452.841C386.822 453.092 386.85 453.454 386.627 453.705L380.141 460.561C380.03 460.672 379.863 460.728 379.696 460.728ZM366.278 441.025L379.751 459.167L385.402 453.203C383.871 450.249 379.529 436.956 378.109 432.58L366.278 441.025Z" fill="#092540"/>
<path d="M362.687 479.261L371.344 479.205C377.079 479.177 382.396 476.251 385.541 471.429L394.115 457.83C396.481 454.067 395.145 449.107 391.248 447.016C387.685 445.121 383.927 443.254 383.036 443.338C381.254 443.505 380.531 451.949 380.531 451.949L372.82 452.256C372.82 452.256 369.006 468.141 365.638 469.952C363.188 471.262 361.49 473.213 360.349 474.969C359.152 476.836 360.488 479.288 362.687 479.261Z" fill="#092540"/>
<path d="M363.55 476.502C363.244 476.502 362.993 476.279 362.938 475.972C362.882 475.638 363.132 475.303 363.467 475.275L375.325 473.492C377.803 473.13 379.974 471.652 381.254 469.507L391.721 451.977C391.888 451.67 392.278 451.587 392.584 451.754C392.89 451.921 392.974 452.311 392.807 452.618L382.34 470.148C380.865 472.628 378.387 474.3 375.52 474.718L363.661 476.502C363.634 476.502 363.578 476.502 363.55 476.502Z" fill="white"/>
<path d="M378.192 463.32C378.137 463.32 378.081 463.32 378.025 463.292L371.428 461.48C371.094 461.397 370.899 461.062 370.982 460.728C371.066 460.393 371.4 460.198 371.734 460.282L378.331 462.093C378.665 462.177 378.86 462.511 378.777 462.846C378.721 463.125 378.471 463.32 378.192 463.32Z" fill="white"/>
<path d="M374.741 466.72C374.685 466.72 374.629 466.72 374.601 466.692L370.175 465.605C369.841 465.521 369.646 465.187 369.73 464.852C369.813 464.518 370.147 464.323 370.481 464.407L374.908 465.493C375.242 465.577 375.436 465.911 375.353 466.246C375.269 466.525 375.019 466.72 374.741 466.72Z" fill="white"/>
<path d="M341.698 449.357L326.583 464.574L318.566 461.62L332.512 442.139L341.698 449.357Z" fill="white"/>
<path d="M326.583 465.215C326.499 465.215 326.443 465.215 326.36 465.187L318.343 462.233C318.148 462.177 318.009 462.01 317.953 461.843C317.898 461.648 317.925 461.452 318.037 461.285L331.983 441.805C332.094 441.666 332.234 441.582 332.401 441.554C332.568 441.526 332.735 441.582 332.874 441.693L342.088 448.911C342.227 449.023 342.311 449.19 342.338 449.357C342.338 449.525 342.283 449.72 342.171 449.831L327.056 465.075C326.917 465.131 326.75 465.215 326.583 465.215ZM319.54 461.341L326.416 463.877L340.779 449.413L332.651 443.031L319.54 461.341Z" fill="#092540"/>
<path d="M421.785 336.907C421.785 336.907 352.666 328.407 332.094 347.19C311.551 365.974 364.552 446.738 364.552 446.738L381.31 433.611L365.415 376.536L429.329 357.39L421.785 336.907Z" fill="white"/>
<path d="M364.552 447.351C364.524 447.351 364.497 447.351 364.441 447.351C364.274 447.323 364.107 447.211 364.023 447.072C361.852 443.756 310.966 365.639 331.677 346.716C352.22 327.961 419.029 335.931 421.868 336.266C422.091 336.293 422.286 336.461 422.369 336.656L429.885 357.139C429.941 357.307 429.941 357.474 429.858 357.641C429.774 357.78 429.635 357.92 429.468 357.948L366.139 376.926L381.867 433.416C381.922 433.667 381.839 433.918 381.644 434.085L364.886 447.211C364.803 447.295 364.691 447.351 364.552 447.351ZM387.685 335.625C367.225 335.625 343.118 337.938 332.512 347.636C313.471 365.026 360.043 438.6 364.691 445.818L380.586 433.361L364.803 376.675C364.719 376.341 364.886 376.007 365.22 375.923L428.494 356.944L421.312 337.436C418.834 337.185 404.498 335.625 387.685 335.625Z" fill="#092540"/>
<path d="M459.838 374.056C449.789 377.428 431.834 381.775 406.725 381.413C399.599 381.302 393.002 385.482 389.772 392.17C382.34 407.554 366.222 435.284 340 453.259L327.473 446.125L359.43 370.182C362.353 363.243 367.809 357.864 374.546 355.244L437.902 330.72C437.902 330.72 457.555 324.923 467.187 343.428C468.913 346.744 472.114 340.836 472.866 343.484C475.454 352.652 468.44 371.185 459.838 374.056Z" fill="white"/>
<path d="M339.972 453.9C339.861 453.9 339.75 453.872 339.666 453.816L327.139 446.682C326.861 446.515 326.75 446.18 326.861 445.902L358.818 369.959C361.796 362.908 367.419 357.334 374.295 354.687L437.652 330.162C437.902 330.079 457.945 324.421 467.688 343.177C467.883 343.567 468.106 343.79 468.356 343.846C468.857 343.985 469.609 343.456 470.277 343.01C471.056 342.48 471.808 341.979 472.559 342.23C472.977 342.369 473.255 342.759 473.422 343.316C476.067 352.625 468.996 371.603 460.005 374.613L459.81 374.028L460.005 374.613C449.371 378.18 431.472 382.361 406.669 381.998C406.586 381.998 406.502 381.998 406.419 381.998C399.571 381.998 393.391 385.984 390.274 392.421C382.98 407.554 366.751 435.618 340.306 453.761C340.223 453.872 340.111 453.9 339.972 453.9ZM328.225 445.874L339.944 452.534C365.972 434.559 381.95 406.857 389.188 391.92C392.5 385.064 399.376 380.689 406.725 380.8C431.333 381.162 449.093 377.01 459.643 373.47C467.966 370.684 474.731 352.346 472.281 343.679C472.225 343.456 472.17 343.4 472.17 343.4C472.003 343.372 471.39 343.79 471.028 344.041C470.138 344.626 469.163 345.295 468.105 345.044C467.521 344.905 467.02 344.459 466.658 343.734C457.388 325.898 438.877 331.11 438.097 331.333L374.796 355.83C368.255 358.366 362.854 363.689 360.015 370.433L328.225 445.874Z" fill="#092540"/>
<path d="M331.371 462.205C331.371 462.205 332.094 468.698 330.87 474.411C330.201 477.477 327.473 479.623 324.356 479.623H287.221C284.577 479.623 283.352 476.307 285.412 474.607C292.009 469.061 304.146 460.589 319.095 458.108L323.27 463.961L331.371 462.205Z" fill="#092540"/>
<path d="M327.446 475.108H288.975C288.641 475.108 288.363 474.83 288.363 474.495C288.363 474.161 288.641 473.882 288.975 473.882H327.446C327.78 473.882 328.058 474.161 328.058 474.495C328.058 474.83 327.78 475.108 327.446 475.108Z" fill="white"/>
<path d="M310.437 468.252C310.187 468.252 309.964 468.113 309.853 467.862L307.821 462.902C307.681 462.595 307.848 462.233 308.155 462.093C308.461 461.954 308.823 462.121 308.962 462.428L310.994 467.389C311.133 467.695 310.966 468.057 310.66 468.197C310.604 468.252 310.521 468.252 310.437 468.252Z" fill="white"/>
<path d="M303.756 469.562C303.506 469.562 303.255 469.395 303.172 469.144L301.696 464.685C301.585 464.351 301.752 464.016 302.086 463.905C302.42 463.793 302.754 463.961 302.866 464.295L304.341 468.754C304.452 469.089 304.285 469.423 303.951 469.534C303.868 469.562 303.812 469.562 303.756 469.562Z" fill="white"/>
<path d="M472.337 286.269C465.6 310.849 445.585 326.539 416.524 334.789L420.95 343.066C461.313 341.644 482.469 324.087 490.932 290.393L472.337 286.269Z" fill="white"/>
<path d="M420.978 343.707C420.755 343.707 420.532 343.567 420.421 343.372L415.995 335.095C415.911 334.928 415.911 334.733 415.967 334.566C416.05 334.398 416.19 334.259 416.357 334.203C446.727 325.564 465.35 309.372 471.724 286.102C471.808 285.795 472.142 285.6 472.448 285.656L491.043 289.808C491.21 289.836 491.349 289.948 491.433 290.087C491.516 290.226 491.544 290.393 491.516 290.561C482.803 325.425 460.367 342.313 420.978 343.707ZM417.442 335.179L421.339 342.452C459.615 341.003 481.523 324.589 490.18 290.867L472.782 286.993C466.185 310.236 447.59 326.428 417.442 335.179Z" fill="#092540"/>
<path d="M423.427 334.12C423.01 333.311 422.314 332.67 421.479 332.364C420.866 332.141 420.282 331.862 419.697 331.556L411.791 327.348C410.316 326.623 408.2 328.323 406.669 328.825C402.021 330.357 392.445 333.952 393.224 337.325C394.087 340.975 402.327 339.248 405.25 338.495C405.918 338.328 411.986 340.53 413.907 340.669C416.551 340.864 417.164 340.195 418.472 339.526C419.057 339.22 419.725 339.08 420.421 339.08C421.506 339.08 422.564 338.607 423.232 337.77L423.26 337.743C424.012 336.795 424.151 335.513 423.594 334.426L423.427 334.12Z" fill="white"/>
<path d="M414.77 341.338C414.492 341.338 414.185 341.338 413.851 341.31C412.793 341.226 410.734 340.613 408.729 340.028C407.365 339.638 405.695 339.108 405.333 339.136C402.271 339.916 396.648 340.975 394.004 339.359C393.252 338.913 392.779 338.272 392.612 337.492C391.777 333.925 399.682 330.497 406.475 328.267C406.892 328.128 407.365 327.877 407.894 327.626C409.23 326.957 410.761 326.177 412.07 326.818L420.003 331.026C420.671 331.389 421.2 331.611 421.701 331.807C422.676 332.169 423.511 332.893 423.984 333.869L424.151 334.175C424.819 335.457 424.652 337.018 423.733 338.161C422.926 339.164 421.729 339.721 420.421 339.721C419.781 339.721 419.224 339.861 418.751 340.111C418.556 340.223 418.361 340.307 418.194 340.418C417.359 340.864 416.551 341.338 414.77 341.338ZM405.361 337.882C405.862 337.882 406.753 338.133 409.091 338.83C410.928 339.387 413.016 340 413.963 340.084C415.995 340.251 416.663 339.861 417.581 339.331C417.776 339.22 417.971 339.108 418.166 338.997C418.806 338.662 419.586 338.467 420.421 338.467C421.367 338.467 422.202 338.077 422.759 337.38C423.372 336.6 423.483 335.569 423.037 334.705L422.87 334.398C422.509 333.702 421.952 333.2 421.256 332.949C420.699 332.754 420.115 332.475 419.391 332.113L411.485 327.905C410.734 327.543 409.509 328.156 408.423 328.713C407.866 328.992 407.337 329.27 406.836 329.41C398.318 332.197 393.335 335.179 393.809 337.157C393.92 337.631 394.198 337.993 394.644 338.272C396.286 339.275 400.183 339.136 405.083 337.882C405.194 337.882 405.278 337.882 405.361 337.882Z" fill="#092540"/>
<path d="M128.3 345.211H438.765C444.555 345.211 449.037 349.03 448.397 353.377L426.962 495.759H411.485L424.903 362.128C425.125 359.787 422.676 357.752 419.558 357.752H153.047C148.371 357.752 144.696 360.762 145.058 364.274L158.336 496.595H142.859L121.063 351.371C120.562 348.082 123.958 345.211 128.3 345.211Z" fill="white"/>
<path d="M158.336 497.208H142.859C142.553 497.208 142.302 496.985 142.247 496.679L120.45 351.454C120.228 350.005 120.673 348.528 121.731 347.33C123.206 345.63 125.684 344.598 128.328 344.598H438.793C442.273 344.598 445.474 345.936 447.395 348.166C448.731 349.726 449.316 351.621 449.037 353.489L427.603 495.87C427.547 496.177 427.297 496.4 426.99 496.4H411.513C411.346 496.4 411.179 496.316 411.04 496.205C410.928 496.066 410.873 495.898 410.873 495.731L424.29 362.1C424.374 361.152 423.928 360.428 423.539 359.982C422.648 359.007 421.172 358.421 419.558 358.421H153.047C150.57 358.421 148.259 359.341 146.868 360.874C145.949 361.877 145.531 363.075 145.643 364.274L158.921 496.567C158.949 496.734 158.893 496.902 158.754 497.041C158.67 497.125 158.503 497.208 158.336 497.208ZM143.388 495.954H157.64L144.418 364.33C144.251 362.769 144.808 361.236 145.949 359.982C147.563 358.198 150.208 357.139 153.047 357.139H419.558C421.507 357.139 423.344 357.864 424.457 359.118C425.264 360.01 425.654 361.097 425.543 362.184L412.181 495.146H426.434L447.785 353.293C448.007 351.761 447.534 350.284 446.421 348.974C444.75 347.023 441.883 345.852 438.765 345.852H128.3C125.99 345.852 123.874 346.716 122.649 348.166C121.842 349.113 121.508 350.2 121.675 351.315L143.388 495.954Z" fill="#092540"/>
<path d="M385.987 340.641L369.312 291.425C368.31 289.892 366.556 288.944 364.691 288.944H320.208C318.204 288.944 316.895 290.895 317.563 292.651C317.814 293.348 318.12 294.016 318.343 294.713L333.43 340.752C333.486 343.456 335.657 345.602 338.358 345.602H420.421C423.149 345.602 425.348 343.4 425.348 340.641H385.987Z" fill="white"/>
<path d="M420.421 346.215H338.358C335.379 346.215 332.929 343.818 332.818 340.864L317.758 294.908C317.591 294.434 317.396 293.933 317.229 293.459L317.007 292.874C316.617 291.871 316.756 290.728 317.396 289.808C318.037 288.861 319.094 288.331 320.264 288.331H364.747C366.835 288.331 368.756 289.362 369.897 291.09C369.925 291.146 369.952 291.174 369.952 291.23L386.488 340.028H425.348C425.682 340.028 425.96 340.307 425.96 340.641C425.988 343.707 423.483 346.215 420.421 346.215ZM333.987 340.474C334.015 340.557 334.043 340.641 334.043 340.725C334.099 343.066 336.019 344.961 338.358 344.961H420.421C422.592 344.961 424.401 343.344 424.68 341.254H385.987C385.708 341.254 385.485 341.087 385.402 340.836L368.755 291.675C367.865 290.338 366.362 289.53 364.691 289.53H320.208C319.456 289.53 318.788 289.864 318.371 290.477C317.981 291.034 317.897 291.759 318.12 292.372L318.343 292.957C318.538 293.459 318.733 293.961 318.9 294.49L333.987 340.474Z" fill="#092540"/>
<path d="M352.944 314.166C353.584 316.256 352.61 318.374 350.801 318.931C348.991 319.489 347.015 318.234 346.402 316.144C345.762 314.054 346.737 311.936 348.546 311.379C350.327 310.849 352.304 312.103 352.944 314.166Z" fill="#092540"/>
<path d="M204.518 346.298H122.455C120.2 346.298 118.39 344.487 118.39 342.23V341.449H208.554V342.23C208.582 344.487 206.773 346.298 204.518 346.298Z" fill="white"/>
<path d="M204.518 346.911H122.455C119.866 346.911 117.778 344.821 117.778 342.23V341.449C117.778 341.115 118.056 340.836 118.39 340.836H208.554C208.888 340.836 209.167 341.115 209.167 341.449V342.23C209.194 344.821 207.107 346.911 204.518 346.911ZM119.031 342.09V342.257C119.031 344.152 120.562 345.713 122.482 345.713H204.546C206.439 345.713 207.997 344.18 207.997 342.257V342.09H119.031Z" fill="#092540"/>
<path d="M208.582 341.533H156.972L173.368 293.208C174.343 291.703 176.068 290.784 177.906 290.784H221.526C223.503 290.784 224.783 292.707 224.143 294.407C223.892 295.075 223.614 295.744 223.391 296.441L208.582 341.533Z" fill="white"/>
<path d="M208.582 342.174H156.972C156.777 342.174 156.583 342.09 156.471 341.923C156.36 341.756 156.332 341.561 156.388 341.366L172.784 293.041C172.812 292.985 172.812 292.957 172.839 292.902C173.953 291.202 175.818 290.198 177.878 290.198H221.498C222.64 290.198 223.67 290.728 224.31 291.648C224.922 292.539 225.061 293.654 224.672 294.657L224.449 295.243C224.254 295.716 224.087 296.19 223.92 296.664L209.139 341.756C209.083 341.979 208.86 342.174 208.582 342.174ZM157.835 340.92H208.109L222.751 296.246C222.918 295.744 223.113 295.243 223.308 294.769L223.53 294.211C223.753 293.598 223.67 292.902 223.28 292.344C222.862 291.759 222.222 291.425 221.498 291.425H177.906C176.291 291.425 174.816 292.205 173.953 293.515L157.835 340.92Z" fill="#092540"/>
<path d="M189.43 315.531C188.818 317.566 189.764 319.656 191.518 320.213C193.3 320.743 195.22 319.516 195.833 317.482C196.445 315.448 195.499 313.357 193.745 312.8C191.991 312.271 190.043 313.469 189.43 315.531Z" fill="#092540"/>
<path d="M492.017 498.88H407.532C402.466 498.88 398.652 494.226 399.682 489.238L412.515 426.839C413.601 421.6 418.194 417.838 423.566 417.838H496.054L492.017 498.88Z" fill="white"/>
<path d="M492.017 499.521H407.532C404.916 499.521 402.494 498.351 400.851 496.344C399.209 494.31 398.569 491.69 399.098 489.154L411.931 426.756C413.072 421.238 417.971 417.252 423.566 417.252H496.054C496.221 417.252 496.388 417.336 496.499 417.448C496.61 417.559 496.666 417.726 496.666 417.893L492.658 498.936C492.63 499.243 492.351 499.521 492.017 499.521ZM423.539 418.479C418.5 418.479 414.13 422.074 413.1 427.007L400.295 489.377C399.849 491.551 400.406 493.808 401.798 495.536C403.218 497.264 405.305 498.267 407.532 498.267H491.433L495.358 418.479H423.539Z" fill="#092540"/>
<path d="M502.846 498.88H486.45C481.384 498.88 477.57 494.226 478.6 489.238L492.713 420.541C493.047 418.98 494.411 417.866 495.998 417.866H500.201C501.955 417.866 503.403 419.203 503.542 420.959L509.304 491.83C509.666 495.648 506.66 498.88 502.846 498.88Z" fill="white"/>
<path d="M502.846 499.521H486.45C483.833 499.521 481.412 498.351 479.769 496.344C478.127 494.31 477.487 491.69 478.015 489.154L492.129 420.429C492.518 418.59 494.133 417.252 496.026 417.252H500.229C502.289 417.252 504.015 418.869 504.182 420.903L509.944 491.774C510.111 493.752 509.415 495.731 508.079 497.208C506.743 498.685 504.85 499.521 502.846 499.521ZM496.026 418.479C494.745 418.479 493.604 419.398 493.354 420.68L479.24 489.405C478.795 491.579 479.352 493.836 480.743 495.564C482.163 497.292 484.251 498.295 486.478 498.295H502.874C504.544 498.295 506.075 497.626 507.216 496.4C508.358 495.174 508.887 493.585 508.747 491.913L502.985 421.043C502.874 419.621 501.677 418.534 500.257 418.534H496.026V418.479Z" fill="#092540"/>
<path d="M480.521 451.225H414.352C414.018 451.225 413.74 450.946 413.74 450.611C413.74 450.277 414.018 449.998 414.352 449.998H480.521C482.191 449.998 483.638 448.856 484.028 447.211L489.846 422.575C489.93 422.241 490.264 422.046 490.598 422.102C490.932 422.185 491.127 422.52 491.071 422.854L485.253 447.49C484.724 449.692 482.775 451.225 480.521 451.225Z" fill="#092540"/>
<path d="M454.994 450.611L453.129 458.108C452.823 459.362 451.71 460.282 450.401 460.282H437.29C435.87 460.282 434.84 458.916 435.202 457.551L437.123 450.639H454.994V450.611Z" fill="white"/>
<path d="M450.401 460.867H437.29C436.427 460.867 435.62 460.477 435.091 459.78C434.562 459.084 434.395 458.192 434.618 457.356L436.538 450.444C436.622 450.166 436.845 449.998 437.123 449.998H454.966C455.161 449.998 455.328 450.082 455.468 450.249C455.579 450.389 455.635 450.584 455.579 450.779L453.714 458.275C453.38 459.78 451.988 460.867 450.401 460.867ZM437.624 451.225L435.843 457.69C435.703 458.164 435.815 458.638 436.093 459.028C436.399 459.418 436.845 459.641 437.318 459.641H450.429C451.459 459.641 452.322 458.944 452.545 457.969L454.215 451.252H437.624V451.225Z" fill="#092540"/>
<path d="M474.48 493.251H404.192C403.858 493.251 403.58 492.972 403.58 492.638C403.58 492.303 403.858 492.025 404.192 492.025H474.48C474.814 492.025 475.093 492.303 475.093 492.638C475.093 492.972 474.814 493.251 474.48 493.251Z" fill="#092540"/>
<path d="M440.241 415.023H434.757C433.282 415.023 432.085 416.221 432.085 417.698H442.941C442.941 416.221 441.716 415.023 440.241 415.023Z" fill="#092540"/>
<path d="M442.941 418.339H432.085C431.75 418.339 431.472 418.061 431.472 417.726C431.472 415.915 432.947 414.41 434.785 414.41H440.269C442.078 414.41 443.581 415.887 443.581 417.726C443.553 418.061 443.275 418.339 442.941 418.339ZM432.78 417.085H442.217C441.967 416.249 441.159 415.636 440.241 415.636H434.757C433.838 415.636 433.059 416.249 432.78 417.085Z" fill="#092540"/>
<path d="M484.223 415.023H478.739C477.264 415.023 476.067 416.221 476.067 417.698H486.923C486.895 416.221 485.698 415.023 484.223 415.023Z" fill="#092540"/>
<path d="M486.895 418.339H476.039C475.705 418.339 475.427 418.061 475.427 417.726C475.427 415.915 476.902 414.41 478.739 414.41H484.223C486.032 414.41 487.536 415.887 487.536 417.726C487.508 418.061 487.229 418.339 486.895 418.339ZM476.763 417.085H486.199C485.949 416.249 485.142 415.636 484.223 415.636H478.739C477.793 415.636 477.013 416.249 476.763 417.085Z" fill="#092540"/>
<path d="M482.776 414.884L483.666 409.616C484.307 405.882 481.773 402.872 478.071 402.872H445.168C441.438 402.872 437.93 405.882 437.29 409.616L436.399 414.884H438.905L439.6 410.787C440.102 407.889 442.83 405.52 445.725 405.52H476.568C479.463 405.52 481.412 407.861 480.938 410.787L480.242 414.884H482.776Z" fill="white"/>
<path d="M482.776 415.497H480.27C480.075 415.497 479.908 415.413 479.797 415.274C479.686 415.134 479.63 414.939 479.658 414.772L480.354 410.675C480.549 409.449 480.27 408.279 479.546 407.443C478.851 406.607 477.793 406.161 476.596 406.161H445.752C443.136 406.161 440.658 408.279 440.241 410.898L439.545 414.995C439.489 415.302 439.239 415.525 438.932 415.525H436.427C436.232 415.525 436.065 415.441 435.954 415.302C435.842 415.162 435.787 414.967 435.815 414.8L436.705 409.533C437.374 405.52 441.187 402.259 445.196 402.259H478.099C480.075 402.259 481.801 403.039 482.97 404.433C484.167 405.854 484.641 407.749 484.307 409.756L483.416 415.023C483.332 415.274 483.082 415.497 482.776 415.497ZM480.994 414.27H482.247L483.054 409.533C483.332 407.889 482.943 406.356 481.996 405.241C481.05 404.126 479.658 403.513 478.071 403.513H445.168C441.744 403.513 438.487 406.3 437.902 409.756L437.151 414.298H438.403L439.016 410.731C439.545 407.554 442.579 404.962 445.752 404.962H476.596C478.182 404.962 479.546 405.575 480.493 406.69C481.467 407.833 481.829 409.338 481.579 410.926L480.994 414.27Z" fill="#092540"/>
<path d="M476.429 400.698H447.534C446.365 400.698 445.279 401.646 445.057 402.816L444.639 405.352C444.444 406.523 445.224 407.47 446.393 407.47H475.287C476.457 407.47 477.542 406.523 477.765 405.352L478.182 402.816C478.377 401.646 477.598 400.698 476.429 400.698Z" fill="#092540"/>
<path d="M475.287 408.056H446.393C445.641 408.056 445.001 407.749 444.528 407.22C444.082 406.69 443.887 405.966 444.027 405.213L444.444 402.677C444.695 401.2 446.031 400.057 447.506 400.057H476.401C477.152 400.057 477.793 400.364 478.266 400.893C478.711 401.423 478.906 402.148 478.767 402.9L478.349 405.436C478.127 406.913 476.763 408.056 475.287 408.056ZM447.534 401.311C446.671 401.311 445.836 402.036 445.669 402.9L445.251 405.436C445.196 405.826 445.279 406.189 445.502 406.439C445.725 406.69 446.031 406.83 446.42 406.83H475.315C476.178 406.83 477.013 406.105 477.18 405.241L477.598 402.705C477.653 402.315 477.57 401.952 477.347 401.702C477.125 401.451 476.818 401.311 476.429 401.311H447.534Z" fill="#092540"/>
<path d="M486.311 493.251C486.088 493.251 485.893 493.139 485.782 492.944C485.615 492.638 485.726 492.275 486.005 492.108L497.028 485.838V422.743C497.028 422.408 497.306 422.129 497.64 422.129C497.974 422.129 498.253 422.408 498.253 422.743V486.2C498.253 486.423 498.142 486.618 497.947 486.73L486.617 493.195C486.506 493.223 486.394 493.251 486.311 493.251Z" fill="#092540"/>
</g>
<defs>
<clipPath id="clip0_201_2546">
<rect width="510" height="510" fill="white"/>
</clipPath>
</defs>
</svg>
