<svg width="200" height="45" viewBox="0 0 200 45" fill="none" xmlns="http://www.w3.org/2000/svg">
<rect x="43.1543" y="42.4551" width="17.9712" height="17.9712" transform="rotate(-180 43.1543 42.4551)" fill="#D9D9D9"/>
<rect x="43.1543" y="18.7659" width="17.9712" height="17.9712" transform="rotate(-180 43.1543 18.7659)" fill="#2F86FF"/>
<rect x="18.6481" y="42.4551" width="17.9712" height="17.9712" transform="rotate(-180 18.6481 42.4551)" fill="#2F86FF"/>
<rect x="18.6481" y="18.7659" width="17.9712" height="17.9712" transform="rotate(-180 18.6481 18.7659)" fill="#2F86FF"/>
<path d="M58.1358 8.16159C58.8437 8.31407 59.4155 8.65171 59.8512 9.17451C60.2978 9.69731 60.521 10.3127 60.521 11.0206C60.521 11.9573 60.1997 12.7088 59.5571 13.2752C58.9254 13.8416 58.0051 14.1248 56.7961 14.1248H52.5157V2.60685H56.7308C57.8853 2.60685 58.762 2.86281 59.3611 3.37471C59.9601 3.88662 60.2596 4.58913 60.2596 5.48225C60.2596 6.22288 60.0581 6.82192 59.6552 7.27936C59.2631 7.73681 58.7566 8.03089 58.1358 8.16159ZM54.0024 7.65513H56.4857C57.2154 7.65513 57.7709 7.48631 58.1521 7.14867C58.5442 6.81102 58.7403 6.33724 58.7403 5.72731C58.7403 5.13916 58.5497 4.67626 58.1685 4.33862C57.7872 4.00098 57.2045 3.83216 56.4203 3.83216H54.0024V7.65513ZM56.5184 12.8831C57.3026 12.8831 57.9071 12.7034 58.3318 12.344C58.7675 11.9846 58.9853 11.4781 58.9853 10.8246C58.9853 10.182 58.762 9.68097 58.3155 9.32155C57.8798 8.95123 57.2699 8.76607 56.4857 8.76607H54.0024V12.8831H56.5184ZM62.1142 2.52517C62.1142 2.25288 62.2068 2.03504 62.3919 1.87167C62.5771 1.6974 62.8222 1.61027 63.1271 1.61027C63.4321 1.61027 63.6771 1.6974 63.8623 1.87167C64.0475 2.03504 64.14 2.25288 64.14 2.52517C64.14 2.79746 64.0475 3.02074 63.8623 3.195C63.6771 3.35838 63.4321 3.44006 63.1271 3.44006C62.8222 3.44006 62.5771 3.35838 62.3919 3.195C62.2068 3.02074 62.1142 2.79746 62.1142 2.52517ZM63.8623 5.1555V14.1248H62.3756V5.1555H63.8623ZM67.1184 12.8668H71.9216V14.1248H65.4847V12.9321L70.0592 6.41348H65.6154V5.1555H71.7583V6.36447L67.1184 12.8668ZM84.5716 5.00846C85.6172 5.00846 86.4558 5.3461 87.0875 6.02138C87.7301 6.68577 88.0514 7.64968 88.0514 8.91311V14.1248H86.5647V9.04381C86.5647 8.16159 86.3469 7.48631 85.9112 7.01797C85.4865 6.54963 84.8983 6.31546 84.1468 6.31546C83.3626 6.31546 82.7309 6.57685 82.2516 7.09965C81.7833 7.61156 81.5491 8.36853 81.5491 9.37056V14.1248H80.0624V9.04381C80.0624 8.16159 79.8446 7.48631 79.4089 7.01797C78.9733 6.54963 78.3851 6.31546 77.6445 6.31546C76.8494 6.31546 76.2122 6.57685 75.733 7.09965C75.2647 7.61156 75.0305 8.36853 75.0305 9.37056V14.1248H73.5438V5.1555H75.0305V7.19768C75.2483 6.48972 75.635 5.95059 76.1904 5.58027C76.7568 5.19906 77.4049 5.00846 78.1346 5.00846C78.897 5.00846 79.556 5.20451 80.1114 5.59661C80.6778 5.97781 81.0808 6.54418 81.3204 7.2957C81.5709 6.56596 81.9902 6.00504 82.5784 5.61294C83.1665 5.20995 83.8309 5.00846 84.5716 5.00846ZM94.0358 5.04113C94.9071 5.04113 95.6423 5.25897 96.2413 5.69463C96.8513 6.1303 97.276 6.713 97.5157 7.44274V5.1555H99.0024V14.1248H97.5157V11.8375C97.276 12.5673 96.8513 13.15 96.2413 13.5856C95.6423 14.0213 94.9071 14.2391 94.0358 14.2391C93.2407 14.2391 92.5327 14.054 91.9119 13.6836C91.2911 13.3133 90.801 12.7851 90.4415 12.0989C90.093 11.4018 89.9187 10.585 89.9187 9.64829C89.9187 8.71161 90.093 7.89474 90.4415 7.19768C90.801 6.50061 91.2911 5.96692 91.9119 5.59661C92.5327 5.22629 93.2407 5.04113 94.0358 5.04113ZM94.4606 6.36447C93.5457 6.36447 92.8105 6.65854 92.255 7.24669C91.7104 7.82395 91.4381 8.62448 91.4381 9.64829C91.4381 10.6721 91.7104 11.4781 92.255 12.0662C92.8105 12.6435 93.5457 12.9321 94.4606 12.9321C95.0487 12.9321 95.5715 12.796 96.029 12.5237C96.4973 12.2514 96.8622 11.8702 97.1236 11.3801C97.385 10.879 97.5157 10.3018 97.5157 9.64829C97.5157 8.9948 97.385 8.41754 97.1236 7.91653C96.8622 7.41551 96.4973 7.0343 96.029 6.7729C95.5715 6.50061 95.0487 6.36447 94.4606 6.36447ZM105.649 12.8178V14.1248H104.538C103.623 14.1248 102.937 13.9069 102.479 13.4713C102.033 13.0356 101.81 12.3059 101.81 11.282V6.44615H100.47V5.1555H101.81V2.91727H103.313V5.1555H105.633V6.44615H103.313V11.3147C103.313 11.892 103.416 12.2895 103.623 12.5073C103.841 12.7143 104.211 12.8178 104.734 12.8178H105.649ZM107.202 2.52517C107.202 2.25288 107.294 2.03504 107.479 1.87167C107.665 1.6974 107.91 1.61027 108.215 1.61027C108.52 1.61027 108.765 1.6974 108.95 1.87167C109.135 2.03504 109.228 2.25288 109.228 2.52517C109.228 2.79746 109.135 3.02074 108.95 3.195C108.765 3.35838 108.52 3.44006 108.215 3.44006C107.91 3.44006 107.665 3.35838 107.479 3.195C107.294 3.02074 107.202 2.79746 107.202 2.52517ZM108.95 5.1555V14.1248H107.463V5.1555H108.95ZM115.31 5.04113C116.454 5.04113 117.401 5.3461 118.153 5.95603C118.904 6.56596 119.367 7.38284 119.541 8.40665H117.973C117.864 7.76404 117.565 7.26303 117.075 6.9036C116.595 6.53329 115.996 6.34813 115.277 6.34813C114.755 6.34813 114.275 6.46794 113.84 6.70755C113.415 6.94717 113.072 7.31749 112.81 7.8185C112.549 8.30862 112.418 8.91856 112.418 9.64829C112.418 10.378 112.549 10.9934 112.81 11.4944C113.072 11.9846 113.415 12.3494 113.84 12.589C114.275 12.8287 114.755 12.9485 115.277 12.9485C115.996 12.9485 116.595 12.7633 117.075 12.393C117.565 12.0227 117.864 11.5162 117.973 10.8736H119.541C119.367 11.9083 118.904 12.7306 118.153 13.3406C117.401 13.9396 116.454 14.2391 115.31 14.2391C114.45 14.2391 113.687 14.054 113.023 13.6836C112.358 13.3133 111.836 12.7851 111.454 12.0989C111.084 11.4018 110.899 10.585 110.899 9.64829C110.899 8.71161 111.084 7.89474 111.454 7.19768C111.836 6.50061 112.358 5.96692 113.023 5.59661C113.687 5.22629 114.45 5.04113 115.31 5.04113Z" fill="#9AA2B1"/>
<path d="M63.5026 34.9635H57.0085L55.9302 38.1248H51.5191L57.8662 20.9214H62.6939L69.041 38.1248H64.5809L63.5026 34.9635ZM62.4244 31.7777L60.2678 25.4061L58.0868 31.7777H62.4244ZM76.8455 24.2788C78.6099 24.2788 80.0885 24.7689 81.2811 25.7491C82.4737 26.713 83.2252 28.0446 83.5357 29.7436H79.1C78.9693 29.1555 78.6998 28.698 78.2913 28.3713C77.8829 28.0445 77.3683 27.8812 76.7474 27.8812C76.0123 27.8812 75.4078 28.1752 74.934 28.7634C74.4602 29.3352 74.2233 30.1766 74.2233 31.2875C74.2233 32.3985 74.4602 33.248 74.934 33.8362C75.4078 34.408 76.0123 34.6939 76.7474 34.6939C77.3683 34.6939 77.8829 34.5305 78.2913 34.2038C78.6998 33.877 78.9693 33.4196 79.1 32.8314H83.5357C83.2252 34.5305 82.4737 35.8702 81.2811 36.8504C80.0885 37.8143 78.6099 38.2963 76.8455 38.2963C75.5058 38.2963 74.3132 38.0186 73.2676 37.4631C72.2383 36.8913 71.4296 36.0744 70.8415 35.0125C70.2533 33.9505 69.9592 32.7089 69.9592 31.2875C69.9592 29.8498 70.2451 28.6082 70.817 27.5626C71.4051 26.5007 72.222 25.692 73.2676 25.1365C74.3132 24.5647 75.5058 24.2788 76.8455 24.2788ZM91.8986 24.2788C93.663 24.2788 95.1416 24.7689 96.3342 25.7491C97.5268 26.713 98.2784 28.0446 98.5888 29.7436H94.1531C94.0224 29.1555 93.7529 28.698 93.3444 28.3713C92.936 28.0445 92.4214 27.8812 91.8006 27.8812C91.0654 27.8812 90.4609 28.1752 89.9871 28.7634C89.5133 29.3352 89.2764 30.1766 89.2764 31.2875C89.2764 32.3985 89.5133 33.248 89.9871 33.8362C90.4609 34.408 91.0654 34.6939 91.8006 34.6939C92.4214 34.6939 92.936 34.5305 93.3444 34.2038C93.7529 33.877 94.0224 33.4196 94.1531 32.8314H98.5888C98.2784 34.5305 97.5268 35.8702 96.3342 36.8504C95.1416 37.8143 93.663 38.2963 91.8986 38.2963C90.5589 38.2963 89.3663 38.0186 88.3207 37.4631C87.2914 36.8913 86.4827 36.0744 85.8946 35.0125C85.3064 33.9505 85.0123 32.7089 85.0123 31.2875C85.0123 29.8498 85.2983 28.6082 85.8701 27.5626C86.4582 26.5007 87.2751 25.692 88.3207 25.1365C89.3663 24.5647 90.5589 24.2788 91.8986 24.2788ZM107.172 24.2788C108.528 24.2788 109.737 24.5647 110.799 25.1365C111.877 25.692 112.719 26.5007 113.323 27.5626C113.944 28.6245 114.255 29.8662 114.255 31.2875C114.255 32.7089 113.944 33.9505 113.323 35.0125C112.719 36.0744 111.877 36.8913 110.799 37.4631C109.737 38.0186 108.528 38.2963 107.172 38.2963C105.816 38.2963 104.599 38.0186 103.521 37.4631C102.443 36.8913 101.593 36.0744 100.972 35.0125C100.368 33.9505 100.065 32.7089 100.065 31.2875C100.065 29.8662 100.368 28.6245 100.972 27.5626C101.593 26.5007 102.443 25.692 103.521 25.1365C104.599 24.5647 105.816 24.2788 107.172 24.2788ZM107.172 27.9057C106.372 27.9057 105.694 28.1998 105.138 28.7879C104.599 29.3597 104.33 30.1929 104.33 31.2875C104.33 32.3821 104.599 33.2154 105.138 33.7872C105.694 34.359 106.372 34.6449 107.172 34.6449C107.973 34.6449 108.643 34.359 109.182 33.7872C109.721 33.2154 109.99 32.3821 109.99 31.2875C109.99 30.1929 109.721 29.3597 109.182 28.7879C108.643 28.1998 107.973 27.9057 107.172 27.9057ZM130.028 24.4503V38.1248H125.813V35.6496C125.421 36.4502 124.833 37.0873 124.049 37.5611C123.281 38.0349 122.383 38.2718 121.353 38.2718C119.785 38.2718 118.535 37.749 117.604 36.7034C116.689 35.6578 116.231 34.2201 116.231 32.3903V24.4503H120.398V31.8757C120.398 32.8069 120.634 33.5339 121.108 34.0567C121.598 34.5632 122.252 34.8164 123.069 34.8164C123.918 34.8164 124.588 34.5469 125.078 34.0077C125.568 33.4686 125.813 32.7007 125.813 31.7041V24.4503H130.028ZM141.592 24.3033C143.16 24.3033 144.402 24.8261 145.317 25.8717C146.248 26.9173 146.714 28.355 146.714 30.1848V38.1248H142.523V30.6749C142.523 29.76 142.278 29.0493 141.788 28.5428C141.314 28.02 140.677 27.7586 139.876 27.7586C139.027 27.7586 138.349 28.0282 137.842 28.5673C137.352 29.1065 137.107 29.8743 137.107 30.8709V38.1248H132.917V24.4503H137.107V26.9499C137.499 26.1331 138.079 25.4877 138.847 25.014C139.631 24.5402 140.546 24.3033 141.592 24.3033ZM157.221 34.5223V38.1248H155.334C153.733 38.1248 152.483 37.7327 151.585 36.9485C150.703 36.1479 150.262 34.8328 150.262 33.003V27.9792H148.424V24.4503H150.262V21.093H154.452V24.4503H157.197V27.9792H154.452V33.0765C154.452 33.6156 154.558 33.9914 154.771 34.2038C154.999 34.4162 155.375 34.5223 155.898 34.5223H157.221ZM159.184 20.6028C159.184 19.9657 159.413 19.4429 159.871 19.0344C160.328 18.6097 160.933 18.3973 161.684 18.3973C162.436 18.3973 163.04 18.6097 163.498 19.0344C163.955 19.4429 164.184 19.9657 164.184 20.6028C164.184 21.2237 163.955 21.7465 163.498 22.1712C163.04 22.5797 162.436 22.7839 161.684 22.7839C160.933 22.7839 160.328 22.5797 159.871 22.1712C159.413 21.7465 159.184 21.2237 159.184 20.6028ZM163.767 24.4503V38.1248H159.577V24.4503H163.767ZM175.336 24.3033C176.904 24.3033 178.146 24.8261 179.061 25.8717C179.992 26.9173 180.457 28.355 180.457 30.1848V38.1248H176.267V30.6749C176.267 29.76 176.022 29.0493 175.532 28.5428C175.058 28.02 174.421 27.7586 173.62 27.7586C172.771 27.7586 172.093 28.0282 171.586 28.5673C171.096 29.1065 170.851 29.8743 170.851 30.8709V38.1248H166.66V24.4503H170.851V26.9499C171.243 26.1331 171.823 25.4877 172.591 25.014C173.375 24.5402 174.29 24.3033 175.336 24.3033ZM188.417 24.2788C189.462 24.2788 190.361 24.5157 191.112 24.9894C191.864 25.4632 192.419 26.1086 192.779 26.9254V24.4503H196.945V38.0512C196.945 39.3256 196.7 40.4692 196.209 41.4821C195.719 42.5114 194.968 43.3282 193.955 43.9327C192.942 44.5372 191.684 44.8394 190.181 44.8394C188.122 44.8394 186.472 44.3493 185.231 43.3691C184.005 42.4052 183.27 41.09 183.025 39.4236H187.167C187.297 39.9791 187.591 40.412 188.049 40.7224C188.523 41.0328 189.135 41.188 189.887 41.188C190.753 41.188 191.447 40.9348 191.97 40.4283C192.509 39.9382 192.779 39.1458 192.779 38.0512V35.6496C192.419 36.4665 191.864 37.1118 191.112 37.5856C190.361 38.0594 189.462 38.2963 188.417 38.2963C187.289 38.2963 186.276 38.0186 185.378 37.4631C184.496 36.8913 183.793 36.0744 183.27 35.0125C182.764 33.9505 182.511 32.7089 182.511 31.2875C182.511 29.8498 182.764 28.6082 183.27 27.5626C183.793 26.5007 184.496 25.692 185.378 25.1365C186.276 24.5647 187.289 24.2788 188.417 24.2788ZM189.764 27.9547C188.866 27.9547 188.139 28.2488 187.583 28.8369C187.044 29.4251 186.775 30.2419 186.775 31.2875C186.775 32.3331 187.044 33.15 187.583 33.7382C188.139 34.3263 188.866 34.6204 189.764 34.6204C190.647 34.6204 191.365 34.3181 191.921 33.7136C192.493 33.1092 192.779 32.3005 192.779 31.2875C192.779 30.2583 192.493 29.4496 191.921 28.8614C191.365 28.2569 190.647 27.9547 189.764 27.9547Z" fill="#092540"/>
</svg>
