<svg width="174" height="42" viewBox="0 0 174 42" fill="none" xmlns="http://www.w3.org/2000/svg">
<rect x="41.9766" y="-0.000244141" width="17.6822" height="17.6822" transform="rotate(90 41.9766 -0.000244141)" fill="#D9D9D9"/>
<rect x="18.6682" y="-0.000488281" width="17.6822" height="17.6822" transform="rotate(90 18.6682 -0.000488281)" fill="#2EBBAF"/>
<rect x="41.9766" y="24.1117" width="17.6822" height="17.6822" transform="rotate(90 41.9766 24.1117)" fill="#2EBBAF"/>
<rect x="18.6681" y="24.1118" width="17.6822" height="17.6822" transform="rotate(90 18.6681 24.1118)" fill="#2EBBAF"/>
<path d="M56.7172 8.02993C57.4138 8.17996 57.9764 8.51217 58.405 9.02656C58.8444 9.54095 59.0641 10.1464 59.0641 10.843C59.0641 11.7646 58.748 12.5041 58.1157 13.0613C57.4941 13.6186 56.5886 13.8972 55.3991 13.8972H51.1875V2.56451H55.3348C56.4707 2.56451 57.3334 2.81634 57.9228 3.32002C58.5122 3.8237 58.8069 4.51491 58.8069 5.39366C58.8069 6.12239 58.6087 6.7118 58.2121 7.16189C57.8263 7.61198 57.328 7.90133 56.7172 8.02993ZM52.6503 7.53161H55.0936C55.8116 7.53161 56.3582 7.3655 56.7333 7.03329C57.1191 6.70108 57.312 6.23491 57.312 5.63479C57.312 5.0561 57.1244 4.60064 56.7493 4.26843C56.3743 3.93622 55.8009 3.77011 55.0293 3.77011H52.6503V7.53161ZM55.1258 12.6755C55.8974 12.6755 56.4921 12.4987 56.9101 12.1451C57.3387 11.7914 57.5531 11.2931 57.5531 10.6501C57.5531 10.0178 57.3334 9.52488 56.894 9.17124C56.4653 8.80687 55.8652 8.62469 55.0936 8.62469H52.6503V12.6755H55.1258ZM60.6316 2.48413C60.6316 2.21622 60.7227 2.00189 60.9049 1.84114C61.0871 1.66968 61.3282 1.58395 61.6283 1.58395C61.9283 1.58395 62.1695 1.66968 62.3516 1.84114C62.5338 2.00189 62.6249 2.21622 62.6249 2.48413C62.6249 2.75204 62.5338 2.97173 62.3516 3.1432C62.1695 3.30395 61.9283 3.38432 61.6283 3.38432C61.3282 3.38432 61.0871 3.30395 60.9049 3.1432C60.7227 2.97173 60.6316 2.75204 60.6316 2.48413ZM62.3516 5.07217V13.8972H60.8888V5.07217H62.3516ZM65.5554 12.6595H70.2814V13.8972H63.9479V12.7238L68.4489 6.30993H64.0765V5.07217H70.1207V6.2617L65.5554 12.6595ZM82.7279 4.9275C83.7567 4.9275 84.5819 5.25971 85.2034 5.92413C85.8357 6.57784 86.1518 7.52625 86.1518 8.76937V13.8972H84.689V8.89796C84.689 8.02993 84.4747 7.3655 84.046 6.90469C83.6281 6.44388 83.0494 6.21348 82.31 6.21348C81.5384 6.21348 80.9168 6.47067 80.4453 6.98507C79.9845 7.48874 79.7541 8.23354 79.7541 9.21946V13.8972H78.2913V8.89796C78.2913 8.02993 78.0769 7.3655 77.6483 6.90469C77.2196 6.44388 76.6409 6.21348 75.9122 6.21348C75.1299 6.21348 74.503 6.47067 74.0315 6.98507C73.5707 7.48874 73.3403 8.23354 73.3403 9.21946V13.8972H71.8774V5.07217H73.3403V7.08152C73.5546 6.38494 73.935 5.85448 74.4816 5.49011C75.0388 5.11504 75.6765 4.9275 76.3945 4.9275C77.1446 4.9275 77.793 5.12039 78.3395 5.50619C78.8968 5.88127 79.2933 6.43853 79.529 7.17796C79.7755 6.45996 80.1881 5.90806 80.7668 5.52226C81.3455 5.12575 81.9992 4.9275 82.7279 4.9275ZM92.04 4.95965C92.8973 4.95965 93.6207 5.17398 94.2101 5.60264C94.8102 6.0313 95.2281 6.60463 95.4639 7.32264V5.07217H96.9267V13.8972H95.4639V11.6467C95.2281 12.3648 94.8102 12.9381 94.2101 13.3667C93.6207 13.7954 92.8973 14.0097 92.04 14.0097C91.2577 14.0097 90.5611 13.8276 89.9503 13.4632C89.3394 13.0988 88.8572 12.5791 88.5035 11.9039C88.1606 11.2181 87.9891 10.4144 87.9891 9.49273C87.9891 8.57111 88.1606 7.76737 88.5035 7.08152C88.8572 6.39566 89.3394 5.87055 89.9503 5.50619C90.5611 5.14183 91.2577 4.95965 92.04 4.95965ZM92.4579 6.2617C91.5577 6.2617 90.8344 6.55105 90.2878 7.12974C89.752 7.69771 89.4841 8.48538 89.4841 9.49273C89.4841 10.5001 89.752 11.2931 90.2878 11.8718C90.8344 12.4398 91.5577 12.7238 92.4579 12.7238C93.0366 12.7238 93.551 12.5898 94.0011 12.3219C94.4619 12.054 94.8209 11.6789 95.0781 11.1967C95.3353 10.7037 95.4639 10.1357 95.4639 9.49273C95.4639 8.84974 95.3353 8.28176 95.0781 7.78881C94.8209 7.29585 94.4619 6.92077 94.0011 6.66357C93.551 6.39566 93.0366 6.2617 92.4579 6.2617ZM103.466 12.6112V13.8972H102.373C101.473 13.8972 100.798 13.6829 100.348 13.2542C99.9085 12.8256 99.6888 12.1076 99.6888 11.1002V6.34208H98.3707V5.07217H99.6888V2.86993H101.168V5.07217H103.45V6.34208H101.168V11.1324C101.168 11.7003 101.269 12.0915 101.473 12.3058C101.687 12.5094 102.052 12.6112 102.566 12.6112H103.466ZM104.994 2.48413C104.994 2.21622 105.085 2.00189 105.267 1.84114C105.45 1.66968 105.691 1.58395 105.991 1.58395C106.291 1.58395 106.532 1.66968 106.714 1.84114C106.896 2.00189 106.987 2.21622 106.987 2.48413C106.987 2.75204 106.896 2.97173 106.714 3.1432C106.532 3.30395 106.291 3.38432 105.991 3.38432C105.691 3.38432 105.45 3.30395 105.267 3.1432C105.085 2.97173 104.994 2.75204 104.994 2.48413ZM106.714 5.07217V13.8972H105.251V5.07217H106.714ZM112.972 4.95965C114.097 4.95965 115.03 5.25971 115.769 5.85983C116.509 6.45996 116.964 7.2637 117.136 8.27105H115.592C115.485 7.63877 115.191 7.14581 114.708 6.79217C114.237 6.42781 113.647 6.24563 112.94 6.24563C112.426 6.24563 111.954 6.36351 111.525 6.59927C111.108 6.83504 110.77 7.1994 110.513 7.69236C110.256 8.1746 110.127 8.77472 110.127 9.49273C110.127 10.2107 110.256 10.8162 110.513 11.3092C110.77 11.7914 111.108 12.1504 111.525 12.3862C111.954 12.622 112.426 12.7398 112.94 12.7398C113.647 12.7398 114.237 12.5577 114.708 12.1933C115.191 11.8289 115.485 11.3306 115.592 10.6983H117.136C116.964 11.7164 116.509 12.5255 115.769 13.1256C115.03 13.715 114.097 14.0097 112.972 14.0097C112.126 14.0097 111.375 13.8276 110.722 13.4632C110.068 13.0988 109.554 12.5791 109.179 11.9039C108.814 11.2181 108.632 10.4144 108.632 9.49273C108.632 8.57111 108.814 7.76737 109.179 7.08152C109.554 6.39566 110.068 5.87055 110.722 5.50619C111.375 5.14183 112.126 4.95965 112.972 4.95965Z" fill="#9AA2B1"/>
<path d="M59.2248 19.6811C61.3949 19.6811 63.1873 20.2518 64.6019 21.3931C66.0325 22.5344 66.9568 24.0776 67.3748 26.0226H63.0105C62.689 25.235 62.1906 24.6161 61.5155 24.166C60.8564 23.7159 60.0688 23.4909 59.1525 23.4909C57.9469 23.4909 56.9744 23.9329 56.2349 24.817C55.4955 25.7011 55.1258 26.8826 55.1258 28.3615C55.1258 29.8404 55.4955 31.0219 56.2349 31.906C56.9744 32.774 57.9469 33.2081 59.1525 33.2081C60.0688 33.2081 60.8564 32.983 61.5155 32.5329C62.1906 32.0828 62.689 31.472 63.0105 30.7004H67.3748C66.9568 32.6294 66.0325 34.1725 64.6019 35.3299C63.1873 36.4712 61.3949 37.0419 59.2248 37.0419C57.5691 37.0419 56.1144 36.6802 54.8605 35.9568C53.6067 35.2174 52.6342 34.1886 51.943 32.8705C51.2678 31.5524 50.9303 30.0494 50.9303 28.3615C50.9303 26.6737 51.2678 25.1707 51.943 23.8525C52.6342 22.5344 53.6067 21.5137 54.8605 20.7903C56.1144 20.0509 57.5691 19.6811 59.2248 19.6811ZM78.4383 36.8972L74.7491 30.4593H73.8087V36.8972H69.6856V19.8499H76.7263C78.0766 19.8499 79.2179 20.083 80.1502 20.5492C81.0826 21.0153 81.7818 21.6583 82.248 22.4782C82.7142 23.2819 82.9472 24.2062 82.9472 25.251C82.9472 26.4888 82.6016 27.5417 81.9104 28.4097C81.2353 29.2778 80.2467 29.8725 78.9446 30.194L82.9955 36.8972H78.4383ZM73.8087 27.6382H76.3646C77.1844 27.6382 77.7872 27.4613 78.173 27.1077C78.5588 26.738 78.7517 26.1995 78.7517 25.4922C78.7517 24.817 78.5508 24.2866 78.1489 23.9008C77.7631 23.515 77.1684 23.3221 76.3646 23.3221H73.8087V27.6382ZM104.184 19.9705V36.8972H100.061V26.312L96.3956 36.8972H92.827L89.1379 26.2879V36.8972H85.0147V19.9705H90.0541L94.6595 31.7613L99.1685 19.9705H104.184ZM122.082 28.1204C123.111 28.3615 123.922 28.8598 124.517 29.6153C125.128 30.3709 125.433 31.2469 125.433 32.2436C125.433 33.7064 124.943 34.8477 123.963 35.6675C122.998 36.4873 121.608 36.8972 119.791 36.8972H111.858V19.8499H119.598C121.334 19.8499 122.677 20.2277 123.625 20.9832C124.573 21.7387 125.048 22.8157 125.048 24.2142C125.048 25.243 124.774 26.103 124.228 26.7942C123.681 27.4694 122.966 27.9114 122.082 28.1204ZM115.981 26.8183H118.682C120.113 26.8183 120.828 26.2075 120.828 24.9858C120.828 23.7641 120.097 23.1533 118.634 23.1533H115.981V26.8183ZM118.923 33.5456C120.45 33.5456 121.214 32.9187 121.214 31.6649C121.214 31.054 121.013 30.5798 120.611 30.2423C120.209 29.8886 119.638 29.7118 118.899 29.7118H115.981V33.5456H118.923ZM131.734 19.0542V36.8972H127.611V19.0542H131.734ZM139.693 23.2739C140.722 23.2739 141.606 23.5069 142.345 23.9731C143.085 24.4393 143.631 25.0742 143.985 25.878V23.4426H148.084V36.8972H143.985V34.4619C143.631 35.2656 143.085 35.9006 142.345 36.3667C141.606 36.8329 140.722 37.066 139.693 37.066C138.584 37.066 137.587 36.7927 136.703 36.2462C135.835 35.6836 135.144 34.8798 134.629 33.835C134.131 32.7901 133.882 31.5684 133.882 30.1699C133.882 28.7553 134.131 27.5337 134.629 26.5049C135.144 25.46 135.835 24.6643 136.703 24.1178C137.587 23.5552 138.584 23.2739 139.693 23.2739ZM141.019 26.8907C140.135 26.8907 139.42 27.18 138.873 27.7587C138.343 28.3374 138.077 29.1411 138.077 30.1699C138.077 31.1987 138.343 32.0025 138.873 32.5811C139.42 33.1598 140.135 33.4492 141.019 33.4492C141.887 33.4492 142.594 33.1518 143.141 32.557C143.704 31.9623 143.985 31.1666 143.985 30.1699C143.985 29.1572 143.704 28.3615 143.141 27.7828C142.594 27.1881 141.887 26.8907 141.019 26.8907ZM155.818 23.2739C157.521 23.2739 158.88 23.6998 159.893 24.5518C160.921 25.4038 161.564 26.529 161.821 27.9275H157.964C157.851 27.381 157.594 26.955 157.192 26.6496C156.806 26.3281 156.316 26.1673 155.721 26.1673C155.255 26.1673 154.901 26.2718 154.66 26.4808C154.419 26.6737 154.298 26.955 154.298 27.3247C154.298 27.7426 154.515 28.0561 154.95 28.2651C155.4 28.474 156.099 28.683 157.047 28.892C158.076 29.1331 158.92 29.3823 159.579 29.6395C160.238 29.8806 160.809 30.2825 161.291 30.8451C161.773 31.4077 162.014 32.1632 162.014 33.1116C162.014 33.8832 161.805 34.5664 161.387 35.1611C160.97 35.7559 160.367 36.2221 159.579 36.5596C158.791 36.8972 157.859 37.066 156.782 37.066C154.966 37.066 153.511 36.6641 152.418 35.8604C151.325 35.0567 150.658 33.9073 150.416 32.4124H154.395C154.459 32.991 154.7 33.4331 155.118 33.7385C155.552 34.0439 156.107 34.1967 156.782 34.1967C157.248 34.1967 157.602 34.0922 157.843 33.8832C158.084 33.6582 158.205 33.3688 158.205 33.0152C158.205 32.549 157.98 32.2195 157.53 32.0266C157.095 31.8176 156.38 31.6006 155.384 31.3755C154.387 31.1666 153.567 30.9415 152.924 30.7004C152.281 30.4593 151.727 30.0735 151.26 29.543C150.794 28.9965 150.561 28.257 150.561 27.3247C150.561 26.1191 151.019 25.1466 151.935 24.4071C152.852 23.6516 154.146 23.2739 155.818 23.2739ZM171.917 33.3527V36.8972H170.06C168.485 36.8972 167.255 36.5114 166.371 35.7398C165.503 34.9522 165.069 33.6582 165.069 31.8578V26.9148H163.261V23.4426H165.069V20.1393H169.192V23.4426H171.893V26.9148H169.192V31.9301C169.192 32.4606 169.297 32.8303 169.506 33.0393C169.731 33.2482 170.1 33.3527 170.615 33.3527H171.917Z" fill="#092540"/>
</svg>
