<svg width="40" height="40" viewBox="0 0 40 40" fill="none" xmlns="http://www.w3.org/2000/svg">
<path d="M28.3333 15V11.6666C28.3333 9.8257 26.841 8.33331 25 8.33331H8.33333C6.49238 8.33331 5 9.8257 5 11.6666V21.6666C5 23.5076 6.49238 25 8.33333 25H11.6667M15 31.6666H31.6667C33.5077 31.6666 35 30.1743 35 28.3333V18.3333C35 16.4924 33.5077 15 31.6667 15H15C13.159 15 11.6667 16.4924 11.6667 18.3333V28.3333C11.6667 30.1743 13.159 31.6666 15 31.6666ZM26.6667 23.3333C26.6667 25.1743 25.1743 26.6666 23.3333 26.6666C21.4923 26.6666 20 25.1743 20 23.3333C20 21.4923 21.4923 20 23.3333 20C25.1743 20 26.6667 21.4923 26.6667 23.3333Z" stroke="#2F86FF" stroke-width="3.33333" stroke-linecap="round" stroke-linejoin="round"/>
</svg>
