<svg width="178" height="45" viewBox="0 0 178 45" fill="none" xmlns="http://www.w3.org/2000/svg">
<rect x="0.641418" y="42.3237" width="17.5701" height="17.5701" transform="rotate(-90 0.641418 42.3237)" fill="#D9D9D9"/>
<rect x="23.8021" y="42.3237" width="17.5701" height="17.5701" transform="rotate(-90 23.8021 42.3237)" fill="#FB9600"/>
<rect x="0.641418" y="18.3645" width="17.5701" height="17.5701" transform="rotate(-90 0.641418 18.3645)" fill="#FB9600"/>
<rect x="23.8021" y="18.3647" width="17.5701" height="17.5701" transform="rotate(-90 23.8021 18.3647)" fill="#FB9600"/>
<path d="M56.0193 8.72899C56.7114 8.87807 57.2705 9.20818 57.6964 9.71931C58.133 10.2304 58.3513 10.8321 58.3513 11.5242C58.3513 12.44 58.0372 13.1748 57.4089 13.7285C56.7913 14.2822 55.8915 14.5591 54.7095 14.5591H50.5246V3.29822H54.6456C55.7744 3.29822 56.6316 3.54846 57.2173 4.04895C57.8029 4.54943 58.0958 5.23626 58.0958 6.10944C58.0958 6.83355 57.8988 7.41922 57.5048 7.86646C57.1214 8.3137 56.6263 8.60121 56.0193 8.72899ZM51.9782 8.23383H54.406C55.1195 8.23383 55.6626 8.06878 56.0353 7.73867C56.4186 7.40857 56.6103 6.94536 56.6103 6.34904C56.6103 5.77401 56.4239 5.32145 56.0512 4.99134C55.6785 4.66124 55.1088 4.49619 54.3421 4.49619H51.9782V8.23383ZM54.438 13.3451C55.2047 13.3451 55.7957 13.1694 56.211 12.818C56.6369 12.4666 56.8499 11.9715 56.8499 11.3326C56.8499 10.7043 56.6316 10.2145 56.195 9.86306C55.769 9.50101 55.1727 9.31999 54.406 9.31999H51.9782V13.3451H54.438ZM59.9089 3.21836C59.9089 2.95214 59.9994 2.73917 60.1805 2.57944C60.3615 2.40907 60.6011 2.32388 60.8992 2.32388C61.1974 2.32388 61.437 2.40907 61.618 2.57944C61.7991 2.73917 61.8896 2.95214 61.8896 3.21836C61.8896 3.48457 61.7991 3.70287 61.618 3.87324C61.437 4.03297 61.1974 4.11284 60.8992 4.11284C60.6011 4.11284 60.3615 4.03297 60.1805 3.87324C59.9994 3.70287 59.9089 3.48457 59.9089 3.21836ZM61.618 5.78999V14.5591H60.1645V5.78999H61.618ZM64.8015 13.3292H69.4975V14.5591H63.2042V13.3931L67.6766 7.0199H63.332V5.78999H69.3378V6.97198L64.8015 13.3292ZM81.8651 5.64623C82.8874 5.64623 83.7073 5.97634 84.3249 6.63655C84.9532 7.28611 85.2673 8.22851 85.2673 9.46374V14.5591H83.8138V9.59153C83.8138 8.72899 83.6008 8.06878 83.1749 7.61089C82.7596 7.153 82.1846 6.92406 81.4498 6.92406C80.6831 6.92406 80.0655 7.17962 79.597 7.69076C79.1391 8.19124 78.9101 8.93131 78.9101 9.91098V14.5591H77.4566V9.59153C77.4566 8.72899 77.2436 8.06878 76.8177 7.61089C76.3917 7.153 75.8167 6.92406 75.0926 6.92406C74.3153 6.92406 73.6923 7.17962 73.2238 7.69076C72.7659 8.19124 72.537 8.93131 72.537 9.91098V14.5591H71.0834V5.78999H72.537V7.78659C72.7499 7.09444 73.128 6.56733 73.671 6.20528C74.2248 5.83258 74.8584 5.64623 75.5718 5.64623C76.3172 5.64623 76.9614 5.83791 77.5045 6.22125C78.0582 6.59395 78.4522 7.14768 78.6865 7.88243C78.9314 7.16898 79.3414 6.62057 79.9164 6.23723C80.4914 5.84323 81.141 5.64623 81.8651 5.64623ZM91.1181 5.67818C91.97 5.67818 92.6888 5.89115 93.2745 6.31709C93.8708 6.74303 94.2861 7.31273 94.5204 8.02619V5.78999H95.9739V14.5591H94.5204V12.3229C94.2861 13.0363 93.8708 13.606 93.2745 14.032C92.6888 14.4579 91.97 14.6709 91.1181 14.6709C90.3408 14.6709 89.6486 14.4899 89.0417 14.1278C88.4347 13.7658 87.9555 13.2493 87.6041 12.5784C87.2634 11.8969 87.093 11.0983 87.093 10.1825C87.093 9.26674 87.2634 8.4681 87.6041 7.78659C87.9555 7.10508 88.4347 6.5833 89.0417 6.22125C89.6486 5.8592 90.3408 5.67818 91.1181 5.67818ZM91.5334 6.97198C90.6389 6.97198 89.9202 7.25949 89.3771 7.83451C88.8447 8.39889 88.5784 9.18156 88.5784 10.1825C88.5784 11.1835 88.8447 11.9715 89.3771 12.5465C89.9202 13.1109 90.6389 13.3931 91.5334 13.3931C92.1084 13.3931 92.6196 13.26 93.0668 12.9937C93.5247 12.7275 93.8814 12.3548 94.137 11.8756C94.3926 11.3858 94.5204 10.8214 94.5204 10.1825C94.5204 9.54361 94.3926 8.97923 94.137 8.4894C93.8814 7.99956 93.5247 7.62686 93.0668 7.3713C92.6196 7.10508 92.1084 6.97198 91.5334 6.97198ZM102.472 13.2813V14.5591H101.386C100.491 14.5591 99.8206 14.3461 99.3733 13.9202C98.9368 13.4942 98.7185 12.7808 98.7185 11.7798V7.05184H97.4087V5.78999H98.7185V3.60171H100.188V5.78999H102.456V7.05184H100.188V11.8118C100.188 12.3761 100.289 12.7648 100.491 12.9778C100.704 13.1801 101.066 13.2813 101.578 13.2813H102.472ZM103.99 3.21836C103.99 2.95214 104.081 2.73917 104.262 2.57944C104.443 2.40907 104.682 2.32388 104.981 2.32388C105.279 2.32388 105.518 2.40907 105.699 2.57944C105.88 2.73917 105.971 2.95214 105.971 3.21836C105.971 3.48457 105.88 3.70287 105.699 3.87324C105.518 4.03297 105.279 4.11284 104.981 4.11284C104.682 4.11284 104.443 4.03297 104.262 3.87324C104.081 3.70287 103.99 3.48457 103.99 3.21836ZM105.699 5.78999V14.5591H104.246V5.78999H105.699ZM111.918 5.67818C113.036 5.67818 113.962 5.97634 114.697 6.57266C115.432 7.16898 115.884 7.96762 116.055 8.96858H114.521C114.415 8.34032 114.122 7.85048 113.643 7.49908C113.174 7.13703 112.589 6.956 111.886 6.956C111.375 6.956 110.906 7.07314 110.48 7.30741C110.065 7.54168 109.729 7.90373 109.474 8.39356C109.218 8.87275 109.09 9.46907 109.09 10.1825C109.09 10.896 109.218 11.4976 109.474 11.9875C109.729 12.4666 110.065 12.8234 110.48 13.0576C110.906 13.2919 111.375 13.409 111.886 13.409C112.589 13.409 113.174 13.228 113.643 12.866C114.122 12.5039 114.415 12.0088 114.521 11.3805H116.055C115.884 12.3921 115.432 13.1961 114.697 13.7924C113.962 14.3781 113.036 14.6709 111.918 14.6709C111.076 14.6709 110.331 14.4899 109.681 14.1278C109.032 13.7658 108.521 13.2493 108.148 12.5784C107.786 11.8969 107.605 11.0983 107.605 10.1825C107.605 9.26674 107.786 8.4681 108.148 7.78659C108.521 7.10508 109.032 6.5833 109.681 6.22125C110.331 5.8592 111.076 5.67818 111.918 5.67818Z" fill="#9AA2B1"/>
<path d="M69.8198 20.7397V37.5591H65.7228V27.041L62.081 37.5591H58.535L54.8692 27.017V37.5591H50.7722V20.7397H55.7797L60.3559 32.4558L64.8363 20.7397H69.8198ZM77.7285 24.0221C78.7507 24.0221 79.6292 24.2537 80.364 24.7169C81.0987 25.1801 81.6418 25.811 81.9932 26.6097V24.1898H86.0663V37.5591H81.9932V35.1392C81.6418 35.9378 81.0987 36.5688 80.364 37.032C79.6292 37.4952 78.7507 37.7268 77.7285 37.7268C76.6263 37.7268 75.636 37.4553 74.7575 36.9122C73.895 36.3531 73.2081 35.5545 72.697 34.5163C72.2018 33.478 71.9543 32.2641 71.9543 30.8744C71.9543 29.4688 72.2018 28.2549 72.697 27.2326C73.2081 26.1944 73.895 25.4037 74.7575 24.8607C75.636 24.3016 76.6263 24.0221 77.7285 24.0221ZM79.0462 27.616C78.1677 27.616 77.4569 27.9035 76.9138 28.4785C76.3867 29.0535 76.1232 29.8522 76.1232 30.8744C76.1232 31.8967 76.3867 32.6953 76.9138 33.2704C77.4569 33.8454 78.1677 34.1329 79.0462 34.1329C79.9087 34.1329 80.6116 33.8374 81.1546 33.2464C81.7137 32.6554 81.9932 31.8648 81.9932 30.8744C81.9932 29.8682 81.7137 29.0775 81.1546 28.5025C80.6116 27.9115 79.9087 27.616 79.0462 27.616ZM92.9842 26.7055C93.4953 25.8909 94.1502 25.244 94.9488 24.7648C95.7634 24.2856 96.6419 24.0461 97.5843 24.0461V28.4306H96.4103C95.3242 28.4306 94.4776 28.6622 93.8706 29.1254C93.2796 29.5886 92.9842 30.3713 92.9842 31.4734V37.5591H88.8871V24.1898H92.9842V26.7055ZM107.397 37.5591L103.396 31.8807V37.5591H99.2991V19.8292H103.396V29.5567L107.397 24.1898H112.213L106.822 30.8744L112.333 37.5591H107.397ZM126.528 30.5151C126.528 30.8505 126.488 31.2179 126.408 31.6172H117.135C117.183 32.6235 117.439 33.3502 117.902 33.7975C118.365 34.2287 118.956 34.4444 119.675 34.4444C120.282 34.4444 120.785 34.2926 121.185 33.9891C121.584 33.6857 121.847 33.2943 121.975 32.8151H126.312C126.136 33.7575 125.753 34.6041 125.162 35.3548C124.571 36.0896 123.82 36.6726 122.91 37.1039C121.999 37.5191 120.985 37.7268 119.867 37.7268C118.557 37.7268 117.391 37.4553 116.369 36.9122C115.362 36.3531 114.572 35.5545 113.997 34.5163C113.422 33.478 113.134 32.2641 113.134 30.8744C113.134 29.4688 113.414 28.2549 113.973 27.2326C114.548 26.1944 115.347 25.4037 116.369 24.8607C117.391 24.3016 118.557 24.0221 119.867 24.0221C121.193 24.0221 122.359 24.2936 123.365 24.8367C124.371 25.3798 125.146 26.1465 125.689 27.1368C126.248 28.1111 126.528 29.2372 126.528 30.5151ZM122.383 29.8921C122.399 29.0136 122.159 28.3587 121.664 27.9275C121.185 27.4802 120.586 27.2566 119.867 27.2566C119.116 27.2566 118.493 27.4802 117.998 27.9275C117.503 28.3747 117.223 29.0296 117.159 29.8921H122.383ZM136.234 34.0371V37.5591H134.39C132.824 37.5591 131.602 37.1757 130.724 36.409C129.861 35.6264 129.43 34.3406 129.43 32.5516V27.6399H127.633V24.1898H129.43V20.9074H133.527V24.1898H136.21V27.6399H133.527V32.6235C133.527 33.1506 133.631 33.518 133.838 33.7256C134.062 33.9332 134.429 34.0371 134.941 34.0371H136.234ZM138.154 20.4282C138.154 19.8053 138.377 19.2941 138.825 18.8948C139.272 18.4795 139.863 18.2719 140.598 18.2719C141.332 18.2719 141.923 18.4795 142.371 18.8948C142.818 19.2941 143.041 19.8053 143.041 20.4282C143.041 21.0352 142.818 21.5463 142.371 21.9616C141.923 22.3609 141.332 22.5606 140.598 22.5606C139.863 22.5606 139.272 22.3609 138.825 21.9616C138.377 21.5463 138.154 21.0352 138.154 20.4282ZM142.634 24.1898V37.5591H138.537V24.1898H142.634ZM153.944 24.0461C155.478 24.0461 156.692 24.5572 157.586 25.5794C158.497 26.6017 158.952 28.0073 158.952 29.7963V37.5591H154.855V30.2755C154.855 29.381 154.615 28.6862 154.136 28.191C153.673 27.6799 153.05 27.4243 152.267 27.4243C151.437 27.4243 150.774 27.6879 150.279 28.215C149.799 28.7421 149.56 29.4928 149.56 30.4671V37.5591H145.463V24.1898H149.56V26.6337C149.943 25.835 150.51 25.2041 151.261 24.7409C152.028 24.2777 152.922 24.0461 153.944 24.0461ZM166.733 24.0221C167.756 24.0221 168.634 24.2537 169.369 24.7169C170.104 25.1801 170.647 25.811 170.998 26.6097V24.1898H175.071V37.4872C175.071 38.7331 174.832 39.8512 174.352 40.8415C173.873 41.8478 173.139 42.6464 172.148 43.2374C171.158 43.8284 169.928 44.1239 168.458 44.1239C166.446 44.1239 164.833 43.6447 163.619 42.6864C162.421 41.744 161.702 40.4582 161.462 38.8289H165.511C165.639 39.372 165.927 39.7953 166.374 40.0988C166.837 40.4022 167.436 40.554 168.171 40.554C169.018 40.554 169.696 40.3064 170.208 39.8113C170.735 39.3321 170.998 38.5574 170.998 37.4872V35.1392C170.647 35.9378 170.104 36.5688 169.369 37.032C168.634 37.4952 167.756 37.7268 166.733 37.7268C165.631 37.7268 164.641 37.4553 163.762 36.9122C162.9 36.3531 162.213 35.5545 161.702 34.5163C161.207 33.478 160.959 32.2641 160.959 30.8744C160.959 29.4688 161.207 28.2549 161.702 27.2326C162.213 26.1944 162.9 25.4037 163.762 24.8607C164.641 24.3016 165.631 24.0221 166.733 24.0221ZM168.051 27.616C167.173 27.616 166.462 27.9035 165.919 28.4785C165.392 29.0535 165.128 29.8522 165.128 30.8744C165.128 31.8967 165.392 32.6953 165.919 33.2704C166.462 33.8454 167.173 34.1329 168.051 34.1329C168.914 34.1329 169.617 33.8374 170.16 33.2464C170.719 32.6554 170.998 31.8648 170.998 30.8744C170.998 29.8682 170.719 29.0775 170.16 28.5025C169.617 27.9115 168.914 27.616 168.051 27.616Z" fill="#092540"/>
</svg>
