<svg width="186" height="41" viewBox="0 0 186 41" fill="none" xmlns="http://www.w3.org/2000/svg">
<rect x="0.0784302" width="17.6863" height="17.6863" fill="#D9D9D9"/>
<rect x="0.0783997" y="23.3136" width="17.6863" height="17.6863" fill="#EB344D"/>
<rect x="24.1962" width="17.6863" height="17.6863" fill="#EB344D"/>
<rect x="24.1961" y="23.3136" width="17.6863" height="17.6863" fill="#EB344D"/>
<path d="M56.6263 7.63137C57.323 7.78144 57.8858 8.11373 58.3145 8.62824C58.754 9.14275 58.9737 9.74837 58.9737 10.4451C58.9737 11.3669 58.6575 12.1065 58.0251 12.6639C57.4034 13.2213 56.4976 13.5 55.3078 13.5H51.0953V2.16471H55.2435C56.3797 2.16471 57.2426 2.4166 57.8322 2.92039C58.4217 3.42418 58.7165 4.11556 58.7165 4.99451C58.7165 5.7234 58.5182 6.31294 58.1216 6.76314C57.7357 7.21333 57.2373 7.50275 56.6263 7.63137ZM52.5584 7.13294H55.0024C55.7205 7.13294 56.2672 6.9668 56.6424 6.63451C57.0282 6.30222 57.2212 5.83595 57.2212 5.23569C57.2212 4.65686 57.0336 4.20131 56.6584 3.86902C56.2833 3.53673 55.7098 3.37059 54.938 3.37059H52.5584V7.13294ZM55.0345 12.278C55.8063 12.278 56.4012 12.1012 56.8192 11.7475C57.248 11.3937 57.4624 10.8953 57.4624 10.2522C57.4624 9.61974 57.2426 9.12667 56.8031 8.77294C56.3744 8.4085 55.7741 8.22627 55.0024 8.22627H52.5584V12.278H55.0345ZM60.5416 2.08431C60.5416 1.81634 60.6327 1.60196 60.815 1.44118C60.9972 1.26967 61.2384 1.18392 61.5385 1.18392C61.8386 1.18392 62.0798 1.26967 62.262 1.44118C62.4442 1.60196 62.5353 1.81634 62.5353 2.08431C62.5353 2.35229 62.4442 2.57203 62.262 2.74353C62.0798 2.90431 61.8386 2.98471 61.5385 2.98471C61.2384 2.98471 60.9972 2.90431 60.815 2.74353C60.6327 2.57203 60.5416 2.35229 60.5416 2.08431ZM62.262 4.67294V13.5H60.7989V4.67294H62.262ZM65.4665 12.262H70.1936V13.5H63.8587V12.3263L68.3606 5.91098H63.9873V4.67294H70.0328V5.86275L65.4665 12.262ZM82.6429 4.52824C83.672 4.52824 84.4973 4.86052 85.119 5.5251C85.7514 6.17895 86.0676 7.12758 86.0676 8.37098V13.5H84.6045V8.49961C84.6045 7.63137 84.3901 6.9668 83.9614 6.50588C83.5433 6.04497 82.9645 5.81451 82.2249 5.81451C81.4531 5.81451 80.8314 6.07177 80.3598 6.58627C79.8989 7.09007 79.6684 7.83503 79.6684 8.82118V13.5H78.2053V8.49961C78.2053 7.63137 77.9909 6.9668 77.5622 6.50588C77.1334 6.04497 76.5546 5.81451 75.8257 5.81451C75.0432 5.81451 74.4161 6.07177 73.9445 6.58627C73.4836 7.09007 73.2531 7.83503 73.2531 8.82118V13.5H71.79V4.67294H73.2531V6.68275C73.4675 5.98601 73.848 5.45543 74.3947 5.09098C74.9521 4.71582 75.5899 4.52824 76.308 4.52824C77.0584 4.52824 77.7069 4.72118 78.2535 5.10706C78.8109 5.48222 79.2075 6.03961 79.4433 6.77922C79.6899 6.06105 80.1025 5.50902 80.6814 5.12314C81.2602 4.72654 81.914 4.52824 82.6429 4.52824ZM91.9571 4.56039C92.8146 4.56039 93.5382 4.77477 94.1277 5.20353C94.728 5.63229 95.146 6.20575 95.3818 6.92392V4.67294H96.845V13.5H95.3818V11.249C95.146 11.9672 94.728 12.5407 94.1277 12.9694C93.5382 13.3982 92.8146 13.6125 91.9571 13.6125C91.1746 13.6125 90.4779 13.4303 89.8669 13.0659C89.2559 12.7014 88.7736 12.1816 88.4199 11.5063C88.0769 10.8203 87.9054 10.0163 87.9054 9.09451C87.9054 8.17268 88.0769 7.36876 88.4199 6.68275C88.7736 5.99673 89.2559 5.4715 89.8669 5.10706C90.4779 4.74261 91.1746 4.56039 91.9571 4.56039ZM92.3752 5.86275C91.4748 5.86275 90.7512 6.15216 90.2046 6.73098C89.6686 7.29908 89.4007 8.08693 89.4007 9.09451C89.4007 10.1021 89.6686 10.8953 90.2046 11.4741C90.7512 12.0422 91.4748 12.3263 92.3752 12.3263C92.954 12.3263 93.4685 12.1923 93.9187 11.9243C94.3796 11.6563 94.7387 11.2812 94.9959 10.7988C95.2532 10.3058 95.3818 9.73765 95.3818 9.09451C95.3818 8.45137 95.2532 7.88327 94.9959 7.3902C94.7387 6.89712 94.3796 6.52196 93.9187 6.26471C93.4685 5.99673 92.954 5.86275 92.3752 5.86275ZM103.386 12.2137V13.5H102.293C101.392 13.5 100.717 13.2856 100.267 12.8569C99.8274 12.4281 99.6077 11.7099 99.6077 10.7024V5.94314H98.2893V4.67294H99.6077V2.4702H101.087V4.67294H103.37V5.94314H101.087V10.7345C101.087 11.3026 101.189 11.6939 101.392 11.9082C101.607 12.1119 101.971 12.2137 102.486 12.2137H103.386ZM104.914 2.08431C104.914 1.81634 105.005 1.60196 105.188 1.44118C105.37 1.26967 105.611 1.18392 105.911 1.18392C106.211 1.18392 106.452 1.26967 106.635 1.44118C106.817 1.60196 106.908 1.81634 106.908 2.08431C106.908 2.35229 106.817 2.57203 106.635 2.74353C106.452 2.90431 106.211 2.98471 105.911 2.98471C105.611 2.98471 105.37 2.90431 105.188 2.74353C105.005 2.57203 104.914 2.35229 104.914 2.08431ZM106.635 4.67294V13.5H105.172V4.67294H106.635ZM112.894 4.56039C114.02 4.56039 114.952 4.86052 115.692 5.46078C116.431 6.06105 116.887 6.86497 117.058 7.87255H115.515C115.408 7.24013 115.113 6.74706 114.631 6.39333C114.159 6.02889 113.569 5.84667 112.862 5.84667C112.347 5.84667 111.876 5.96458 111.447 6.20039C111.029 6.43621 110.691 6.80065 110.434 7.29373C110.177 7.77608 110.048 8.37634 110.048 9.09451C110.048 9.81268 110.177 10.4183 110.434 10.9114C110.691 11.3937 111.029 11.7528 111.447 11.9886C111.876 12.2244 112.347 12.3424 112.862 12.3424C113.569 12.3424 114.159 12.1601 114.631 11.7957C115.113 11.4312 115.408 10.9328 115.515 10.3004H117.058C116.887 11.3187 116.431 12.128 115.692 12.7282C114.952 13.3178 114.02 13.6125 112.894 13.6125C112.047 13.6125 111.297 13.4303 110.643 13.0659C109.989 12.7014 109.475 12.1816 109.1 11.5063C108.735 10.8203 108.553 10.0163 108.553 9.09451C108.553 8.17268 108.735 7.36876 109.1 6.68275C109.475 5.99673 109.989 5.4715 110.643 5.10706C111.297 4.74261 112.047 4.56039 112.894 4.56039Z" fill="#9AA2B1"/>
<path d="M59.1345 19.28C61.3051 19.28 63.0978 19.8508 64.5127 20.9924C65.9437 22.1339 66.8682 23.6775 67.2863 25.6229H62.921C62.5994 24.8351 62.101 24.2161 61.4257 23.7659C60.7665 23.3157 59.9786 23.0906 59.0622 23.0906C57.8563 23.0906 56.8835 23.5327 56.1439 24.4171C55.4043 25.3014 55.0345 26.4831 55.0345 27.9624C55.0345 29.4416 55.4043 30.6233 56.1439 31.5076C56.8835 32.3759 57.8563 32.81 59.0622 32.81C59.9786 32.81 60.7665 32.5849 61.4257 32.1347C62.101 31.6845 62.5994 31.0735 62.921 30.3018H67.2863C66.8682 32.2312 65.9437 33.7747 64.5127 34.9324C63.0978 36.0739 61.3051 36.6447 59.1345 36.6447C57.4784 36.6447 56.0233 36.2829 54.7692 35.5594C53.5151 34.8198 52.5424 33.7908 51.851 32.4724C51.1757 31.1539 50.838 29.6506 50.838 27.9624C50.838 26.2741 51.1757 24.7708 51.851 23.4524C52.5424 22.1339 53.5151 21.1129 54.7692 20.3894C56.0233 19.6498 57.4784 19.28 59.1345 19.28ZM78.3523 36.5L74.6623 30.0606H73.7217V36.5H69.5976V19.4488H76.64C77.9906 19.4488 79.1321 19.682 80.0647 20.1482C80.9972 20.6145 81.6966 21.2576 82.1629 22.0776C82.6292 22.8816 82.8623 23.8061 82.8623 24.8512C82.8623 26.0892 82.5166 27.1424 81.8253 28.0106C81.15 28.8788 80.1611 29.4737 78.8588 29.7953L82.9106 36.5H78.3523ZM73.7217 27.2388H76.2782C77.0982 27.2388 77.7011 27.062 78.087 26.7082C78.4729 26.3384 78.6658 25.7998 78.6658 25.0924C78.6658 24.4171 78.4649 23.8865 78.0629 23.5006C77.677 23.1147 77.0821 22.9218 76.2782 22.9218H73.7217V27.2388ZM104.104 19.5694V36.5H99.9796V25.9124L96.3137 36.5H92.7443L89.0543 25.8882V36.5H84.9302V19.5694H89.9708L94.5773 31.3629L99.0873 19.5694H104.104ZM124.032 19.4488V22.7288H119.401V36.5H115.253V22.7288H110.671V19.4488H124.032ZM125.384 19.2559C125.384 18.6288 125.609 18.1143 126.059 17.7124C126.51 17.2943 127.105 17.0853 127.844 17.0853C128.584 17.0853 129.179 17.2943 129.629 17.7124C130.079 18.1143 130.304 18.6288 130.304 19.2559C130.304 19.8669 130.079 20.3814 129.629 20.7994C129.179 21.2014 128.584 21.4024 127.844 21.4024C127.105 21.4024 126.51 21.2014 126.059 20.7994C125.609 20.3814 125.384 19.8669 125.384 19.2559ZM129.894 23.0424V36.5H125.77V23.0424H129.894ZM138.819 22.8735C140.556 22.8735 142.011 23.3559 143.185 24.3206C144.358 25.2692 145.098 26.5796 145.403 28.2518H141.038C140.909 27.6729 140.644 27.2227 140.242 26.9012C139.84 26.5796 139.334 26.4188 138.723 26.4188C137.999 26.4188 137.404 26.7082 136.938 27.2871C136.472 27.8498 136.239 28.6778 136.239 29.7712C136.239 30.8645 136.472 31.7006 136.938 32.2794C137.404 32.8422 137.999 33.1235 138.723 33.1235C139.334 33.1235 139.84 32.9627 140.242 32.6412C140.644 32.3196 140.909 31.8694 141.038 31.2906H145.403C145.098 32.9627 144.358 34.2812 143.185 35.2459C142.011 36.1945 140.556 36.6688 138.819 36.6688C137.501 36.6688 136.327 36.3955 135.298 35.8488C134.285 35.2861 133.489 34.4822 132.91 33.4371C132.332 32.392 132.042 31.17 132.042 29.7712C132.042 28.3563 132.324 27.1343 132.886 26.1053C133.465 25.0602 134.269 24.2643 135.298 23.7176C136.327 23.1549 137.501 22.8735 138.819 22.8735ZM155.708 36.5L151.68 30.7841V36.5H147.556V18.6529H151.68V28.4447L155.708 23.0424H160.555L155.129 29.7712L160.676 36.5H155.708ZM174.964 29.4094C174.964 29.7471 174.924 30.1169 174.844 30.5188H165.51C165.559 31.5318 165.816 32.2633 166.282 32.7135C166.748 33.1476 167.343 33.3647 168.067 33.3647C168.678 33.3647 169.184 33.212 169.586 32.9065C169.988 32.601 170.253 32.2071 170.382 31.7247H174.747C174.57 32.6733 174.185 33.5255 173.59 34.2812C172.995 35.0208 172.239 35.6076 171.323 36.0418C170.406 36.4598 169.385 36.6688 168.26 36.6688C166.941 36.6688 165.768 36.3955 164.739 35.8488C163.726 35.2861 162.93 34.4822 162.351 33.4371C161.772 32.392 161.483 31.17 161.483 29.7712C161.483 28.3563 161.764 27.1343 162.327 26.1053C162.906 25.0602 163.71 24.2643 164.739 23.7176C165.768 23.1549 166.941 22.8735 168.26 22.8735C169.594 22.8735 170.768 23.1469 171.781 23.6935C172.794 24.2402 173.574 25.012 174.12 26.0088C174.683 26.9896 174.964 28.1231 174.964 29.4094ZM170.792 28.7824C170.808 27.898 170.567 27.2388 170.069 26.8047C169.586 26.3545 168.983 26.1294 168.26 26.1294C167.504 26.1294 166.877 26.3545 166.379 26.8047C165.88 27.2549 165.599 27.9141 165.534 28.7824H170.792ZM184.735 32.9547V36.5H182.878C181.303 36.5 180.073 36.1141 179.188 35.3424C178.32 34.5545 177.886 33.2602 177.886 31.4594V26.5153H176.077V23.0424H177.886V19.7382H182.01V23.0424H184.711V26.5153H182.01V31.5318C182.01 32.0624 182.115 32.4322 182.324 32.6412C182.549 32.8502 182.919 32.9547 183.433 32.9547H184.735Z" fill="#092540"/>
</svg>
